<?xml version="1.0" encoding="utf-8"?>
<!-- Generator: Adobe Illustrator 16.0.0, SVG Export Plug-In . SVG Version: 6.00 Build 0)  -->
<!DOCTYPE svg PUBLIC "-//W3C//DTD SVG 1.1//EN" "http://www.w3.org/Graphics/SVG/1.1/DTD/svg11.dtd">
<svg version="1.1" id="Layer_1" xmlns="http://www.w3.org/2000/svg" xmlns:xlink="http://www.w3.org/1999/xlink" x="0px" y="0px"
	 width="2416.553px" height="275.615px" viewBox="0 0 2416.553 275.615" enable-background="new 0 0 2416.553 275.615"
	 xml:space="preserve">
<g>
	<g>
		<path fill="#404041" d="M634.681,68.832c11.472,0,21.125,1.434,28.967,4.303c7.837,2.867,14.098,6.883,18.786,12.045
			c4.683,5.162,8.031,11.428,10.038,18.785c2.007,7.363,3.011,15.443,3.011,24.234v90.916c-5.354,1.146-13.435,2.537-24.234,4.158
			c-10.804,1.623-22.993,2.438-36.567,2.438c-8.989,0-17.208-0.859-24.665-2.58s-13.816-4.49-19.072-8.318
			c-5.261-3.822-9.37-8.791-12.332-14.914c-2.967-6.115-4.446-13.666-4.446-22.656c0-8.604,1.671-15.867,5.02-21.797
			c3.342-5.924,7.886-10.754,13.623-14.482c5.736-3.729,12.377-6.404,19.933-8.031c7.55-1.621,15.438-2.438,23.661-2.438
			c3.821,0,7.837,0.242,12.045,0.717c4.203,0.48,8.698,1.291,13.479,2.438v-5.736c0-4.014-0.479-7.838-1.434-11.471
			c-0.958-3.631-2.629-6.834-5.018-9.607c-2.394-2.77-5.547-4.922-9.464-6.453c-3.922-1.529-8.846-2.295-14.77-2.295
			c-8.031,0-15.394,0.574-22.084,1.721c-6.695,1.148-12.144,2.488-16.347,4.016l-4.303-28.107c4.396-1.527,10.8-3.057,19.216-4.588
			C616.134,69.6,625.118,68.832,634.681,68.832z M637.549,198.18c10.706,0,18.83-0.574,24.377-1.723v-38.43
			c-1.913-0.574-4.687-1.146-8.316-1.721c-3.634-0.574-7.65-0.861-12.046-0.861c-3.826,0-7.698,0.287-11.615,0.861
			c-3.921,0.574-7.457,1.627-10.611,3.154c-3.155,1.533-5.691,3.684-7.6,6.453c-1.914,2.773-2.869,6.264-2.869,10.469
			c0,8.223,2.582,13.908,7.744,17.064C621.776,196.602,628.752,198.18,637.549,198.18z"/>
		<path fill="#404041" d="M790.125,225.424c-10.325-0.191-18.884-1.34-25.668-3.441c-6.79-2.102-12.189-5.111-16.205-9.033
			c-4.015-3.918-6.838-8.793-8.46-14.627c-1.627-5.83-2.438-12.475-2.438-19.932V5.736L772.057,0v171.793
			c0,4.207,0.332,7.744,1.004,10.611c0.667,2.869,1.864,5.307,3.584,7.314c1.721,2.008,4.06,3.539,7.027,4.588
			c2.962,1.053,6.739,1.865,11.329,2.438L790.125,225.424z"/>
		<path fill="#404041" d="M814.79,148.275c0-13.191,1.958-24.76,5.879-34.703c3.917-9.938,9.128-18.211,15.63-24.807
			c6.499-6.598,13.955-11.566,22.371-14.914c8.411-3.344,17.015-5.02,25.812-5.02c20.65,0,36.755,6.408,48.326,19.215
			c11.566,12.813,17.352,31.934,17.352,57.361c0,1.914-0.05,4.064-0.144,6.453c-0.098,2.393-0.242,4.543-0.429,6.453H850.64
			c0.954,12.045,5.207,21.365,12.763,27.963c7.55,6.596,18.499,9.895,32.838,9.895c8.411,0,16.105-0.762,23.087-2.295
			c6.977-1.527,12.475-3.154,16.491-4.877l4.588,28.395c-1.913,0.959-4.543,1.963-7.886,3.012
			c-3.348,1.053-7.171,2.008-11.473,2.867c-4.302,0.861-8.94,1.578-13.91,2.15c-4.974,0.574-10.038,0.861-15.2,0.861
			c-13.193,0-24.665-1.963-34.417-5.879c-9.75-3.918-17.781-9.365-24.091-16.348c-6.31-6.977-10.997-15.201-14.053-24.666
			C816.317,169.93,814.79,159.561,814.79,148.275z M915.457,132.789c0-4.777-0.672-9.322-2.008-13.623
			c-1.34-4.303-3.298-8.031-5.879-11.186c-2.582-3.154-5.735-5.637-9.464-7.457c-3.729-1.814-8.174-2.725-13.336-2.725
			c-5.355,0-10.038,1.004-14.053,3.012c-4.015,2.008-7.412,4.639-10.181,7.887c-2.775,3.254-4.925,6.982-6.453,11.186
			c-1.533,4.207-2.581,8.51-3.155,12.906H915.457z"/>
		<path fill="#404041" d="M1036.771,68.832c11.472,0,21.125,1.434,28.966,4.303c7.838,2.867,14.098,6.883,18.786,12.045
			c4.682,5.162,8.03,11.428,10.038,18.785c2.007,7.363,3.011,15.443,3.011,24.234v90.916c-5.354,1.146-13.435,2.537-24.234,4.158
			c-10.804,1.623-22.994,2.438-36.567,2.438c-8.99,0-17.208-0.859-24.665-2.58s-13.816-4.49-19.072-8.318
			c-5.261-3.822-9.37-8.791-12.332-14.914c-2.967-6.115-4.446-13.666-4.446-22.656c0-8.604,1.671-15.867,5.02-21.797
			c3.343-5.924,7.887-10.754,13.623-14.482s12.377-6.404,19.933-8.031c7.55-1.621,15.438-2.438,23.661-2.438
			c3.822,0,7.837,0.242,12.045,0.717c4.203,0.48,8.698,1.291,13.479,2.438v-5.736c0-4.014-0.479-7.838-1.434-11.471
			c-0.958-3.631-2.63-6.834-5.019-9.607c-2.393-2.77-5.547-4.922-9.464-6.453c-3.921-1.529-8.846-2.295-14.77-2.295
			c-8.03,0-15.393,0.574-22.084,1.721c-6.695,1.148-12.144,2.488-16.347,4.016l-4.303-28.107c4.396-1.527,10.801-3.057,19.216-4.588
			C1018.224,69.6,1027.208,68.832,1036.771,68.832z M1039.639,198.18c10.706,0,18.83-0.574,24.378-1.723v-38.43
			c-1.913-0.574-4.687-1.146-8.317-1.721c-3.634-0.574-7.65-0.861-12.046-0.861c-3.827,0-7.698,0.287-11.615,0.861
			c-3.922,0.574-7.457,1.627-10.611,3.154c-3.155,1.533-5.691,3.684-7.6,6.453c-1.915,2.773-2.869,6.264-2.869,10.469
			c0,8.223,2.582,13.908,7.744,17.064C1023.866,196.602,1030.843,198.18,1039.639,198.18z"/>
		<path fill="#404041" d="M1138.298,32.982L1173,27.246v45.314h53.345v28.967H1173v61.088c0,12.047,1.91,20.65,5.736,25.813
			c3.822,5.162,10.325,7.744,19.502,7.744c6.31,0,11.903-0.668,16.778-2.008c4.875-1.336,8.747-2.582,11.615-3.729l5.737,27.533
			c-4.016,1.721-9.277,3.49-15.775,5.305c-6.502,1.814-14.151,2.725-22.944,2.725c-10.71,0-19.646-1.434-26.816-4.303
			c-7.17-2.867-12.86-7.025-17.064-12.475c-4.208-5.449-7.17-12.045-8.891-19.789c-1.72-7.744-2.581-16.584-2.581-26.529V32.982z"/>
		<path fill="#404041" d="M1392.117,147.416c0,11.857-1.722,22.656-5.163,32.408s-8.317,18.068-14.627,24.951
			s-13.909,12.238-22.8,16.061c-8.892,3.822-18.691,5.736-29.397,5.736c-10.71,0-20.462-1.914-29.253-5.736
			c-8.797-3.822-16.348-9.178-22.658-16.061c-6.309-6.883-11.234-15.199-14.77-24.951c-3.541-9.752-5.307-20.551-5.307-32.408
			c0-11.854,1.766-22.609,5.307-32.266c3.535-9.652,8.506-17.924,14.914-24.809c6.403-6.883,14.004-12.189,22.801-15.916
			c8.791-3.729,18.449-5.594,28.966-5.594c10.513,0,20.22,1.865,29.11,5.594c8.891,3.727,16.49,9.033,22.801,15.916
			c6.309,6.885,11.23,15.156,14.77,24.809C1390.347,124.807,1392.117,135.563,1392.117,147.416z M1356.554,147.416
			c0-14.914-3.204-26.717-9.608-35.42c-6.407-8.699-15.344-13.051-26.815-13.051s-20.411,4.352-26.815,13.051
			c-6.408,8.703-9.607,20.506-9.607,35.42c0,15.105,3.199,27.057,9.607,35.85c6.404,8.797,15.344,13.191,26.815,13.191
			s20.408-4.395,26.815-13.191C1353.35,174.473,1356.554,162.521,1356.554,147.416z"/>
		<path fill="#404041" d="M1513.431,103.822c-2.868-0.955-6.839-1.959-11.901-3.012c-5.068-1.049-10.949-1.578-17.639-1.578
			c-3.827,0-7.887,0.387-12.189,1.148c-4.301,0.766-7.313,1.434-9.033,2.008v120.168h-34.703V79.73
			c6.689-2.482,15.057-4.826,25.096-7.025c10.037-2.197,21.173-3.299,33.411-3.299c2.294,0,4.97,0.143,8.03,0.43
			c3.057,0.287,6.117,0.672,9.178,1.146c3.057,0.48,6.022,1.055,8.891,1.723c2.867,0.672,5.162,1.289,6.884,1.863L1513.431,103.822z
			"/>
		<path fill="#404041" d="M1582.262,28.68c0,6.504-2.105,11.666-6.309,15.488c-4.207,3.826-9.178,5.736-14.913,5.736
			c-5.929,0-10.997-1.91-15.201-5.736c-4.208-3.822-6.31-8.984-6.31-15.488c0-6.689,2.102-11.947,6.31-15.773
			c4.204-3.822,9.272-5.736,15.201-5.736c5.735,0,10.706,1.914,14.913,5.736C1580.156,16.732,1582.262,21.99,1582.262,28.68z
			 M1578.533,222.557h-34.701V72.561h34.701V222.557z"/>
		<path fill="#404041" d="M1614.379,148.275c0-13.191,1.959-24.76,5.879-34.703c3.918-9.938,9.129-18.211,15.631-24.807
			c6.499-6.598,13.955-11.566,22.371-14.914c8.411-3.344,17.016-5.02,25.813-5.02c20.649,0,36.754,6.408,48.325,19.215
			c11.565,12.813,17.352,31.934,17.352,57.361c0,1.914-0.05,4.064-0.144,6.453c-0.098,2.393-0.242,4.543-0.43,6.453h-98.946
			c0.954,12.045,5.207,21.365,12.763,27.963c7.551,6.596,18.498,9.895,32.838,9.895c8.411,0,16.105-0.762,23.088-2.295
			c6.977-1.527,12.476-3.154,16.491-4.877l4.589,28.395c-1.914,0.959-4.545,1.963-7.887,3.012
			c-3.348,1.053-7.171,2.008-11.473,2.867c-4.303,0.861-8.94,1.578-13.91,2.15c-4.974,0.574-10.037,0.861-15.199,0.861
			c-13.193,0-24.666-1.963-34.417-5.879c-9.751-3.918-17.78-9.365-24.091-16.348c-6.31-6.977-10.996-15.201-14.053-24.666
			C1615.908,169.93,1614.379,159.561,1614.379,148.275z M1715.047,132.789c0-4.777-0.672-9.322-2.009-13.623
			c-1.34-4.303-3.298-8.031-5.879-11.186s-5.735-5.637-9.464-7.457c-3.729-1.814-8.174-2.725-13.336-2.725
			c-5.355,0-10.039,1.004-14.055,3.012c-4.014,2.008-7.411,4.639-10.18,7.887c-2.775,3.254-4.926,6.982-6.454,11.186
			c-1.532,4.207-2.581,8.51-3.155,12.906H1715.047z"/>
		<path fill="#404041" d="M1913.225,217.969c-6.883,2.105-15.537,4.014-25.955,5.736c-10.424,1.719-21.367,2.58-32.839,2.58
			c-11.858,0-22.469-1.818-31.835-5.449c-9.369-3.629-17.352-8.842-23.947-15.631c-6.597-6.783-11.665-15.008-15.201-24.664
			c-3.539-9.652-5.305-20.506-5.305-32.553c0-11.852,1.479-22.607,4.445-32.264c2.961-9.652,7.313-17.926,13.049-24.809
			s12.714-12.189,20.937-15.918c8.219-3.729,17.683-5.592,28.394-5.592c7.264,0,13.667,0.859,19.215,2.58
			c5.543,1.721,10.324,3.635,14.34,5.736V5.736L1913.225,0V217.969z M1813.705,147.129c0,15.299,3.63,27.295,10.898,35.992
			c7.264,8.703,17.302,13.051,30.114,13.051c5.543,0,10.275-0.238,14.196-0.717c3.916-0.475,7.121-1.004,9.607-1.578v-86.039
			c-3.061-2.102-7.125-4.061-12.188-5.881c-5.068-1.814-10.468-2.725-16.204-2.725c-12.619,0-21.846,4.303-27.676,12.906
			C1816.619,120.742,1813.705,132.408,1813.705,147.129z"/>
		<path fill="#00A551" d="M2007.293,68.832c11.471,0,21.124,1.434,28.966,4.303c7.837,2.867,14.099,6.883,18.786,12.045
			c4.682,5.162,8.03,11.428,10.037,18.785c2.008,7.363,3.012,15.443,3.012,24.234v90.916c-5.355,1.146-13.436,2.537-24.234,4.158
			c-10.805,1.623-22.994,2.438-36.566,2.438c-8.99,0-17.209-0.859-24.666-2.58s-13.815-4.49-19.071-8.318
			c-5.261-3.822-9.37-8.791-12.333-14.914c-2.966-6.115-4.445-13.666-4.445-22.656c0-8.604,1.672-15.867,5.02-21.797
			c3.342-5.924,7.887-10.754,13.623-14.482s12.377-6.404,19.933-8.031c7.55-1.621,15.438-2.438,23.661-2.438
			c3.822,0,7.838,0.242,12.045,0.717c4.203,0.48,8.698,1.291,13.479,2.438v-5.736c0-4.014-0.479-7.838-1.434-11.471
			c-0.958-3.631-2.629-6.834-5.018-9.607c-2.395-2.77-5.549-4.922-9.465-6.453c-3.922-1.529-8.846-2.295-14.77-2.295
			c-8.031,0-15.395,0.574-22.084,1.721c-6.695,1.148-12.145,2.488-16.348,4.016l-4.303-28.107
			c4.396-1.527,10.801-3.057,19.216-4.588C1988.744,69.6,1997.729,68.832,2007.293,68.832z M2010.16,198.18
			c10.705,0,18.83-0.574,24.377-1.723v-38.43c-1.912-0.574-4.686-1.146-8.316-1.721c-3.634-0.574-7.649-0.861-12.046-0.861
			c-3.826,0-7.698,0.287-11.614,0.861c-3.922,0.574-7.457,1.627-10.611,3.154c-3.155,1.533-5.691,3.684-7.601,6.453
			c-1.914,2.773-2.868,6.264-2.868,10.469c0,8.223,2.581,13.908,7.744,17.064C1994.387,196.602,2001.363,198.18,2010.16,198.18z"/>
		<path fill="#00A551" d="M2245.621,147.701c0,11.473-1.483,21.99-4.445,31.549c-2.966,9.563-7.219,17.781-12.763,24.664
			c-5.548,6.883-12.476,12.238-20.792,16.063c-8.318,3.822-17.736,5.734-28.25,5.734c-7.076,0-13.578-0.859-19.502-2.58
			c-5.93-1.721-10.805-3.631-14.627-5.736v58.221h-34.703V77.436c7.071-1.908,15.773-3.729,26.099-5.449
			c10.324-1.721,21.223-2.58,32.695-2.58c11.853,0,22.464,1.818,31.835,5.449c9.365,3.633,17.352,8.846,23.947,15.629
			c6.596,6.791,11.66,15.014,15.201,24.666C2243.852,124.807,2245.621,135.656,2245.621,147.701z M2210.059,148.275
			c0-15.486-3.491-27.533-10.469-36.137c-6.982-8.604-18.212-12.906-33.699-12.906c-3.253,0-6.646,0.145-10.181,0.432
			c-3.54,0.285-7.026,0.908-10.468,1.863v85.754c3.056,2.105,7.121,4.064,12.188,5.879c5.063,1.82,10.468,2.725,16.204,2.725
			c12.619,0,21.842-4.303,27.676-12.906C2207.141,174.375,2210.059,162.809,2210.059,148.275z"/>
		<path fill="#00A551" d="M2416.553,147.701c0,11.473-1.484,21.99-4.446,31.549c-2.966,9.563-7.219,17.781-12.763,24.664
			c-5.548,6.883-12.476,12.238-20.793,16.063c-8.316,3.822-17.736,5.734-28.25,5.734c-7.075,0-13.577-0.859-19.502-2.58
			c-5.928-1.721-10.804-3.631-14.627-5.736v58.221h-34.702V77.436c7.071-1.908,15.774-3.729,26.099-5.449s21.223-2.58,32.695-2.58
			c11.852,0,22.465,1.818,31.834,5.449c9.366,3.633,17.352,8.846,23.947,15.629c6.598,6.791,11.66,15.014,15.201,24.666
			C2414.782,124.807,2416.553,135.656,2416.553,147.701z M2380.989,148.275c0-15.486-3.491-27.533-10.468-36.137
			c-6.982-8.604-18.213-12.906-33.7-12.906c-3.253,0-6.646,0.145-10.181,0.432c-3.541,0.285-7.027,0.908-10.469,1.863v85.754
			c3.057,2.105,7.121,4.064,12.189,5.879c5.064,1.82,10.469,2.725,16.204,2.725c12.618,0,21.841-4.303,27.676-12.906
			C2378.071,174.375,2380.989,162.809,2380.989,148.275z"/>
	</g>
	<g>
		<path fill="#00A551" d="M318.175,213.521c3.47,4.126,7.222,8.005,11.216,11.618c20.185,18.262,46.696,29.631,75.82,30.401
			c1.044,0.022,2.078,0.079,3.131,0.079h9.285h3.844v11.207c0,6.549,4.607,9.161,10.229,5.805l48.643-29.036
			c5.622-3.36,5.622-8.851,0-12.202L431.7,202.352c-5.622-3.348-10.229-0.742-10.229,5.811v11.205h-3.844h-9.285
			c-30.939,0-57.902-17.312-71.722-42.762c-1.43,4.57-3.121,9.017-5.021,13.346C327.942,198.299,323.43,206.188,318.175,213.521z"/>
		<path fill="#00A551" d="M421.471,8.797v11.207h-3.844h-9.285c-1.053,0-2.087,0.046-3.131,0.074
			c-29.124,0.769-55.636,12.143-75.82,30.403c-3.994,3.613-7.746,7.491-11.216,11.616c-3.451,4.104-6.628,8.466-9.506,13.021
			c-5.537,8.776-9.965,18.319-13.039,28.444c-3.263,10.68-5.029,21.999-5.086,33.723c0,0.178-0.01,0.347-0.01,0.525
			c0,0.18,0.01,0.348,0.01,0.527c-0.085,13.838-3.63,26.869-9.826,38.268c-13.364,24.611-39.024,41.61-68.678,42.703
			c-1.01,0.038-2.024,0.059-3.044,0.059h-2.495v-0.01c11.035-21.482,17.217-50.369,17.217-81.557
			c0-31.184-6.18-60.068-17.211-81.546h2.489c1.021,0,2.036,0.021,3.046,0.058c29.652,1.096,55.313,18.09,68.676,42.695
			c1.43-4.564,3.123-9.007,5.021-13.342c3.658-8.352,8.17-16.24,13.426-23.568c-21.003-24.97-52.154-41.098-87.043-42.02
			c-1.039-0.028-2.077-0.074-3.126-0.074h-44.112h-50.266H64.355c-6.89,0-13.55,1.809-19.816,5.299
			C34.176,31.074,24.89,41.443,17.426,55.85C6.189,77.535,0,106.643,0,137.811s6.189,60.275,17.426,81.959
			c7.464,14.406,16.75,24.777,27.113,30.55c6.267,3.491,12.927,5.3,19.816,5.3h50.263h50.266h44.112
			c1.049,0,2.087-0.057,3.126-0.079c34.889-0.922,66.04-17.056,87.043-42.02c3.459-4.108,6.628-8.466,9.504-13.026
			c5.538-8.771,9.956-18.309,13.04-28.434c3.253-10.689,5.03-22.009,5.086-33.723c0-0.18,0.01-0.348,0.01-0.527
			c0-0.179-0.01-0.348-0.01-0.525c0.085-13.84,3.629-26.879,9.825-38.277c13.82-25.445,40.783-42.753,71.722-42.753h9.285h3.844
			v11.206c0,6.544,4.607,9.156,10.229,5.801l48.643-29.031c5.622-3.366,5.622-8.852,0-12.203L431.7,2.982
			C426.078-0.369,421.471,2.239,421.471,8.797z M128.322,56.255h33.435h11.318c1.917,2.163,3.786,4.706,5.579,7.618
			c10.729,17.421,16.883,44.369,16.882,73.928c0,29.562-6.154,56.508-16.882,73.928c-1.782,2.892-3.64,5.486-5.54,7.639h-11.358
			h-33.437h-16.843c3.816-7.434,7.081-15.802,9.737-25.042c4.902-17.065,7.498-36.609,7.498-56.515
			c0-19.906-2.596-39.45-7.498-56.516c-2.656-9.242-5.921-17.609-9.735-25.04H128.322z M75.443,222.055
			c-2.667,2.457-6.752,5.381-11.088,5.381c-4.317,0-9.123-2.791-13.783-8.068c-11.643-13.182-22.387-41.902-22.387-81.557
			c0-39.652,10.743-68.373,22.386-81.556c4.661-5.278,9.467-8.069,13.784-8.069c4.335,0,8.421,2.926,11.086,5.381
			c0.881,0.812,1.752,1.715,2.615,2.688c1.918,2.161,3.788,4.708,5.587,7.626c10.729,17.425,16.884,44.372,16.882,73.93
			c0,29.562-6.152,56.508-16.88,73.928c-1.798,2.919-3.67,5.467-5.589,7.629C77.194,220.342,76.322,221.244,75.443,222.055z"/>
	</g>
</g>
</svg>
