<?xml version="1.0" encoding="utf-8"?>
<!-- Generator: Adobe Illustrator 16.0.0, SVG Export Plug-In . SVG Version: 6.00 Build 0)  -->
<!DOCTYPE svg PUBLIC "-//W3C//DTD SVG 1.1//EN" "http://www.w3.org/Graphics/SVG/1.1/DTD/svg11.dtd">
<svg version="1.1" id="Layer_1" xmlns="http://www.w3.org/2000/svg" xmlns:xlink="http://www.w3.org/1999/xlink" x="0px" y="0px"
	 width="2198.272px" height="484.56px" viewBox="0 0 2198.272 484.56" enable-background="new 0 0 2198.272 484.56"
	 xml:space="preserve">
<g>
	<g>
		<path fill="#404041" d="M416.401,173.305c11.472,0,21.125,1.434,28.967,4.302c7.837,2.868,14.098,6.883,18.786,12.045
			c4.683,5.163,8.031,11.428,10.038,18.786c2.007,7.363,3.011,15.442,3.011,24.234v90.915c-5.354,1.147-13.435,2.537-24.234,4.159
			c-10.804,1.622-22.993,2.438-36.567,2.438c-8.989,0-17.208-0.86-24.665-2.581s-13.816-4.49-19.072-8.317
			c-5.261-3.822-9.37-8.792-12.332-14.914c-2.967-6.116-4.446-13.667-4.446-22.656c0-8.604,1.671-15.868,5.02-21.797
			c3.342-5.924,7.886-10.755,13.623-14.483c5.736-3.729,12.377-6.403,19.933-8.03c7.55-1.622,15.438-2.438,23.661-2.438
			c3.821,0,7.837,0.241,12.045,0.716c4.203,0.48,8.698,1.291,13.479,2.438v-5.736c0-4.015-0.479-7.838-1.434-11.472
			c-0.958-3.63-2.629-6.834-5.018-9.607c-2.394-2.77-5.547-4.921-9.464-6.453c-3.922-1.528-8.846-2.294-14.77-2.294
			c-8.031,0-15.394,0.573-22.084,1.72c-6.695,1.148-12.144,2.488-16.347,4.016l-4.303-28.106c4.396-1.528,10.8-3.057,19.216-4.588
			C397.854,174.071,406.838,173.305,416.401,173.305z M419.27,302.651c10.706,0,18.83-0.573,24.377-1.722v-38.431
			c-1.913-0.573-4.687-1.146-8.316-1.721c-3.634-0.574-7.65-0.86-12.046-0.86c-3.826,0-7.698,0.286-11.615,0.86
			c-3.921,0.574-7.457,1.627-10.611,3.154c-3.155,1.533-5.691,3.684-7.6,6.454c-1.914,2.773-2.869,6.264-2.869,10.468
			c0,8.223,2.582,13.909,7.744,17.064C403.496,301.073,410.473,302.651,419.27,302.651z"/>
		<path fill="#404041" d="M571.846,329.896c-10.325-0.191-18.884-1.34-25.668-3.441c-6.79-2.102-12.189-5.112-16.205-9.034
			c-4.015-3.917-6.838-8.792-8.46-14.627c-1.627-5.83-2.438-12.475-2.438-19.932V110.209l34.703-5.736v171.793
			c0,4.207,0.332,7.743,1.004,10.611c0.667,2.868,1.864,5.307,3.584,7.313c1.721,2.008,4.06,3.54,7.027,4.589
			c2.962,1.053,6.739,1.864,11.329,2.438L571.846,329.896z"/>
		<path fill="#404041" d="M596.51,252.747c0-13.191,1.958-24.759,5.879-34.702c3.917-9.938,9.128-18.211,15.63-24.808
			c6.499-6.597,13.955-11.566,22.371-14.914c8.411-3.343,17.015-5.019,25.812-5.019c20.65,0,36.755,6.408,48.326,19.215
			c11.566,12.813,17.352,31.934,17.352,57.36c0,1.914-0.05,4.064-0.144,6.453c-0.098,2.394-0.242,4.544-0.429,6.453H632.36
			c0.954,12.045,5.207,21.366,12.763,27.963c7.55,6.597,18.499,9.895,32.838,9.895c8.411,0,16.105-0.762,23.087-2.294
			c6.977-1.528,12.475-3.155,16.491-4.877l4.588,28.394c-1.913,0.959-4.543,1.963-7.886,3.012
			c-3.348,1.053-7.171,2.008-11.473,2.868s-8.94,1.577-13.91,2.15c-4.974,0.574-10.038,0.86-15.2,0.86
			c-13.193,0-24.665-1.963-34.417-5.879c-9.75-3.917-17.781-9.365-24.091-16.348c-6.31-6.977-10.997-15.2-14.053-24.665
			C598.038,274.401,596.51,264.032,596.51,252.747z M697.177,237.261c0-4.777-0.672-9.321-2.008-13.623
			c-1.34-4.302-3.298-8.03-5.879-11.186c-2.582-3.154-5.735-5.637-9.464-7.456c-3.729-1.815-8.174-2.725-13.336-2.725
			c-5.355,0-10.038,1.004-14.053,3.011c-4.015,2.009-7.412,4.639-10.181,7.888c-2.775,3.253-4.925,6.981-6.453,11.186
			c-1.533,4.207-2.581,8.51-3.155,12.905H697.177z"/>
		<path fill="#404041" d="M818.492,173.305c11.472,0,21.125,1.434,28.966,4.302c7.838,2.868,14.098,6.883,18.786,12.045
			c4.682,5.163,8.03,11.428,10.038,18.786c2.007,7.363,3.011,15.442,3.011,24.234v90.915c-5.354,1.147-13.435,2.537-24.234,4.159
			c-10.804,1.622-22.994,2.438-36.567,2.438c-8.99,0-17.208-0.86-24.665-2.581s-13.816-4.49-19.072-8.317
			c-5.261-3.822-9.37-8.792-12.332-14.914c-2.967-6.116-4.446-13.667-4.446-22.656c0-8.604,1.671-15.868,5.02-21.797
			c3.343-5.924,7.887-10.755,13.623-14.483s12.377-6.403,19.933-8.03c7.55-1.622,15.438-2.438,23.661-2.438
			c3.822,0,7.837,0.241,12.045,0.716c4.203,0.48,8.698,1.291,13.479,2.438v-5.736c0-4.015-0.479-7.838-1.434-11.472
			c-0.958-3.63-2.63-6.834-5.019-9.607c-2.393-2.77-5.547-4.921-9.464-6.453c-3.921-1.528-8.846-2.294-14.77-2.294
			c-8.03,0-15.393,0.573-22.084,1.72c-6.695,1.148-12.144,2.488-16.347,4.016l-4.303-28.106c4.396-1.528,10.801-3.057,19.216-4.588
			C799.944,174.071,808.929,173.305,818.492,173.305z M821.359,302.651c10.706,0,18.83-0.573,24.378-1.722v-38.431
			c-1.913-0.573-4.687-1.146-8.317-1.721c-3.634-0.574-7.65-0.86-12.046-0.86c-3.827,0-7.698,0.286-11.615,0.86
			c-3.922,0.574-7.457,1.627-10.611,3.154c-3.155,1.533-5.691,3.684-7.6,6.454c-1.915,2.773-2.869,6.264-2.869,10.468
			c0,8.223,2.582,13.909,7.744,17.064C805.586,301.073,812.563,302.651,821.359,302.651z"/>
		<path fill="#404041" d="M920.019,137.454l34.702-5.735v45.314h53.345V206h-53.345v61.088c0,12.046,1.91,20.649,5.736,25.812
			c3.822,5.163,10.325,7.744,19.502,7.744c6.31,0,11.903-0.668,16.778-2.008c4.875-1.335,8.747-2.581,11.615-3.729l5.737,27.533
			c-4.016,1.721-9.277,3.49-15.774,5.306c-6.502,1.814-14.151,2.725-22.944,2.725c-10.71,0-19.646-1.435-26.816-4.303
			s-12.86-7.025-17.064-12.476c-4.208-5.448-7.17-12.045-8.891-19.789c-1.72-7.743-2.581-16.584-2.581-26.529V137.454z"/>
		<path fill="#404041" d="M1173.837,251.888c0,11.857-1.721,22.656-5.162,32.408s-8.318,18.068-14.627,24.952
			c-6.31,6.882-13.91,12.237-22.801,16.061c-8.891,3.821-18.691,5.735-29.397,5.735c-10.71,0-20.461-1.914-29.253-5.735
			c-8.797-3.823-16.347-9.179-22.658-16.061c-6.309-6.884-11.234-15.2-14.77-24.952c-3.54-9.752-5.306-20.551-5.306-32.408
			c0-11.853,1.766-22.608,5.306-32.265c3.536-9.652,8.506-17.925,14.914-24.809c6.404-6.883,14.004-12.189,22.801-15.917
			c8.792-3.729,18.449-5.593,28.966-5.593c10.513,0,20.22,1.864,29.11,5.593c8.891,3.728,16.491,9.034,22.801,15.917
			c6.31,6.884,11.23,15.156,14.771,24.809C1172.067,229.279,1173.837,240.035,1173.837,251.888z M1138.274,251.888
			c0-14.914-3.205-26.717-9.608-35.42c-6.408-8.698-15.344-13.05-26.816-13.05c-11.472,0-20.412,4.352-26.816,13.05
			c-6.408,8.703-9.607,20.506-9.607,35.42c0,15.106,3.199,27.058,9.607,35.85c6.404,8.797,15.344,13.192,26.816,13.192
			c11.472,0,20.408-4.396,26.816-13.192C1135.069,278.945,1138.274,266.994,1138.274,251.888z"/>
		<path fill="#404041" d="M1295.151,208.294c-2.868-0.954-6.839-1.958-11.902-3.012c-5.068-1.048-10.948-1.577-17.638-1.577
			c-3.827,0-7.888,0.386-12.189,1.147c-4.302,0.766-7.313,1.434-9.034,2.008v120.168h-34.703V184.203
			c6.69-2.483,15.057-4.826,25.096-7.026c10.037-2.196,21.174-3.299,33.412-3.299c2.294,0,4.969,0.144,8.029,0.431
			c3.057,0.287,6.117,0.672,9.178,1.146c3.057,0.48,6.023,1.054,8.891,1.722c2.868,0.672,5.163,1.29,6.885,1.864L1295.151,208.294z"
			/>
		<path fill="#404041" d="M1363.982,133.152c0,6.503-2.106,11.665-6.31,15.487c-4.207,3.827-9.177,5.736-14.912,5.736
			c-5.93,0-10.998-1.909-15.201-5.736c-4.209-3.822-6.311-8.984-6.311-15.487c0-6.69,2.102-11.947,6.311-15.773
			c4.203-3.822,9.271-5.736,15.201-5.736c5.735,0,10.705,1.914,14.912,5.736C1361.876,121.205,1363.982,126.462,1363.982,133.152z
			 M1360.254,327.028h-34.702V177.033h34.702V327.028z"/>
		<path fill="#404041" d="M1396.1,252.747c0-13.191,1.958-24.759,5.879-34.702c3.917-9.938,9.128-18.211,15.631-24.808
			c6.499-6.597,13.954-11.566,22.371-14.914c8.411-3.343,17.015-5.019,25.812-5.019c20.65,0,36.755,6.408,48.326,19.215
			c11.565,12.813,17.352,31.934,17.352,57.36c0,1.914-0.051,4.064-0.145,6.453c-0.098,2.394-0.242,4.544-0.43,6.453h-98.945
			c0.953,12.045,5.207,21.366,12.762,27.963c7.551,6.597,18.499,9.895,32.839,9.895c8.411,0,16.104-0.762,23.087-2.294
			c6.978-1.528,12.477-3.155,16.492-4.877l4.588,28.394c-1.913,0.959-4.544,1.963-7.887,3.012c-3.348,1.053-7.17,2.008-11.473,2.868
			c-4.302,0.86-8.939,1.577-13.909,2.15c-4.974,0.574-10.038,0.86-15.2,0.86c-13.193,0-24.665-1.963-34.416-5.879
			c-9.751-3.917-17.781-9.365-24.092-16.348c-6.309-6.977-10.996-15.2-14.053-24.665
			C1397.628,274.401,1396.1,264.032,1396.1,252.747z M1496.767,237.261c0-4.777-0.672-9.321-2.008-13.623
			c-1.34-4.302-3.299-8.03-5.879-11.186c-2.582-3.154-5.736-5.637-9.465-7.456c-3.729-1.815-8.174-2.725-13.336-2.725
			c-5.355,0-10.038,1.004-14.054,3.011c-4.015,2.009-7.411,4.639-10.181,7.888c-2.775,3.253-4.926,6.981-6.453,11.186
			c-1.533,4.207-2.581,8.51-3.155,12.905H1496.767z"/>
		<path fill="#404041" d="M1694.944,322.44c-6.883,2.106-15.536,4.015-25.955,5.736c-10.423,1.72-21.367,2.58-32.838,2.58
			c-11.858,0-22.469-1.818-31.835-5.448c-9.37-3.63-17.352-8.842-23.948-15.631c-6.596-6.784-11.664-15.008-15.2-24.664
			c-3.54-9.653-5.306-20.507-5.306-32.553c0-11.853,1.479-22.608,4.445-32.265c2.962-9.652,7.313-17.925,13.05-24.809
			c5.735-6.883,12.714-12.188,20.937-15.917c8.219-3.729,17.683-5.593,28.393-5.593c7.264,0,13.668,0.86,19.216,2.581
			c5.543,1.721,10.324,3.634,14.34,5.736v-71.986l34.702-5.736V322.44z M1595.425,251.601c0,15.299,3.631,27.296,10.898,35.993
			c7.265,8.703,17.303,13.05,30.115,13.05c5.543,0,10.275-0.238,14.196-0.717c3.916-0.475,7.12-1.004,9.607-1.577v-86.04
			c-3.062-2.102-7.126-4.061-12.188-5.88c-5.068-1.814-10.469-2.725-16.205-2.725c-12.619,0-21.846,4.302-27.676,12.906
			C1598.339,225.215,1595.425,236.88,1595.425,251.601z"/>
		<path fill="#404041" d="M1789.013,173.305c11.472,0,21.125,1.434,28.967,4.302c7.837,2.868,14.098,6.883,18.785,12.045
			c4.683,5.163,8.031,11.428,10.038,18.786c2.007,7.363,3.011,15.442,3.011,24.234v90.915c-5.354,1.147-13.435,2.537-24.234,4.159
			c-10.805,1.622-22.993,2.438-36.566,2.438c-8.99,0-17.208-0.86-24.665-2.581s-13.815-4.49-19.071-8.317
			c-5.262-3.822-9.371-8.792-12.333-14.914c-2.966-6.116-4.446-13.667-4.446-22.656c0-8.604,1.672-15.868,5.02-21.797
			c3.343-5.924,7.887-10.755,13.623-14.483s12.377-6.403,19.934-8.03c7.55-1.622,15.438-2.438,23.66-2.438
			c3.822,0,7.838,0.241,12.045,0.716c4.203,0.48,8.699,1.291,13.479,2.438v-5.736c0-4.015-0.479-7.838-1.434-11.472
			c-0.958-3.63-2.63-6.834-5.019-9.607c-2.394-2.77-5.548-4.921-9.465-6.453c-3.921-1.528-8.846-2.294-14.77-2.294
			c-8.03,0-15.394,0.573-22.084,1.72c-6.695,1.148-12.145,2.488-16.348,4.016l-4.303-28.106c4.396-1.528,10.801-3.057,19.217-4.588
			C1770.465,174.071,1779.449,173.305,1789.013,173.305z M1791.88,302.651c10.706,0,18.83-0.573,24.378-1.722v-38.431
			c-1.913-0.573-4.687-1.146-8.316-1.721c-3.634-0.574-7.649-0.86-12.046-0.86c-3.826,0-7.698,0.286-11.615,0.86
			c-3.922,0.574-7.457,1.627-10.611,3.154c-3.154,1.533-5.691,3.684-7.6,6.454c-1.914,2.773-2.869,6.264-2.869,10.468
			c0,8.223,2.582,13.909,7.744,17.064C1776.106,301.073,1783.083,302.651,1791.88,302.651z"/>
		<path fill="#404041" d="M2027.342,252.174c0,11.472-1.483,21.99-4.446,31.549c-2.965,9.563-7.219,17.781-12.762,24.664
			c-5.549,6.883-12.477,12.238-20.793,16.062c-8.317,3.822-17.736,5.735-28.25,5.735c-7.076,0-13.578-0.86-19.502-2.581
			c-5.93-1.721-10.805-3.63-14.627-5.736v58.221h-34.703V181.908c7.072-1.909,15.774-3.729,26.1-5.449
			c10.324-1.721,21.223-2.581,32.695-2.581c11.852,0,22.464,1.819,31.834,5.449c9.365,3.634,17.352,8.847,23.947,15.63
			c6.597,6.79,11.661,15.014,15.201,24.666C2025.571,229.279,2027.342,240.129,2027.342,252.174z M1991.778,252.747
			c0-15.486-3.49-27.532-10.468-36.136c-6.982-8.604-18.212-12.906-33.7-12.906c-3.252,0-6.645,0.144-10.18,0.431
			c-3.541,0.286-7.027,0.909-10.469,1.864v85.753c3.057,2.106,7.121,4.064,12.189,5.879c5.063,1.82,10.468,2.725,16.203,2.725
			c12.619,0,21.842-4.302,27.676-12.905C1988.86,278.847,1991.778,267.28,1991.778,252.747z"/>
		<path fill="#404041" d="M2198.272,252.174c0,11.472-1.484,21.99-4.445,31.549c-2.967,9.563-7.219,17.781-12.764,24.664
			c-5.547,6.883-12.475,12.238-20.792,16.062c-8.317,3.822-17.736,5.735-28.25,5.735c-7.075,0-13.577-0.86-19.502-2.581
			c-5.929-1.721-10.804-3.63-14.627-5.736v58.221h-34.702V181.908c7.07-1.909,15.773-3.729,26.098-5.449s21.223-2.581,32.695-2.581
			c11.853,0,22.465,1.819,31.835,5.449c9.366,3.634,17.352,8.847,23.947,15.63c6.597,6.79,11.66,15.014,15.201,24.666
			C2196.503,229.279,2198.272,240.129,2198.272,252.174z M2162.71,252.747c0-15.486-3.492-27.532-10.469-36.136
			c-6.982-8.604-18.213-12.906-33.699-12.906c-3.254,0-6.646,0.144-10.182,0.431c-3.54,0.286-7.026,0.909-10.468,1.864v85.753
			c3.056,2.106,7.121,4.064,12.189,5.879c5.063,1.82,10.468,2.725,16.204,2.725c12.618,0,21.841-4.302,27.676-12.905
			C2159.792,278.847,2162.71,267.28,2162.71,252.747z"/>
	</g>
	<g>
		<path fill="#00A551" d="M60.575,318.175c-4.125,3.47-8.004,7.222-11.618,11.216c-18.263,20.185-29.632,46.696-30.402,75.82
			c-0.023,1.044-0.08,2.078-0.08,3.132v9.284v3.844H7.269c-6.548,0-9.161,4.607-5.805,10.229L30.5,480.343
			c3.361,5.622,8.85,5.622,12.202,0L71.744,431.7c3.348-5.622,0.743-10.229-5.81-10.229H54.728v-3.844v-9.284
			c0-30.939,17.312-57.902,42.762-71.723c-4.569-1.43-9.016-3.121-13.345-5.021C75.796,327.942,67.908,323.43,60.575,318.175z"/>
		<path fill="#00A551" d="M265.298,421.471h-11.207v-3.844v-9.284c0-1.054-0.046-2.088-0.075-3.132
			c-0.768-29.124-12.142-55.636-30.403-75.82c-3.613-3.994-7.492-7.746-11.617-11.216c-4.104-3.451-8.465-6.628-13.02-9.506
			c-8.777-5.537-18.319-9.965-28.444-13.039c-10.68-3.263-21.999-5.029-33.722-5.086c-0.178,0-0.347-0.01-0.526-0.01
			c-0.179,0-0.348,0.01-0.527,0.01c-13.838-0.085-26.869-3.63-38.268-9.825c-24.611-13.364-41.61-39.024-42.703-68.679
			c-0.038-1.01-0.059-2.024-0.059-3.044v-2.495h0.01c21.482,11.035,50.369,17.218,81.557,17.218
			c31.185,0,60.068-6.181,81.546-17.212v2.489c0,1.021-0.021,2.036-0.058,3.046c-1.095,29.652-18.089,55.313-42.695,68.677
			c4.564,1.43,9.007,3.122,13.341,5.021c8.353,3.658,16.24,8.17,23.568,13.426c24.97-21.003,41.099-52.154,42.02-87.043
			c0.029-1.039,0.075-2.077,0.075-3.126v-44.112v-50.266V64.355c0-6.89-1.81-13.55-5.299-19.816
			c-5.771-10.363-16.142-19.649-30.548-27.113C196.56,6.189,167.453,0,136.284,0c-31.167,0-60.275,6.189-81.958,17.426
			c-14.407,7.464-24.778,16.75-30.55,27.113c-3.491,6.267-5.3,12.927-5.3,19.816v50.263v50.266v44.112
			c0,1.049,0.057,2.087,0.08,3.126c0.922,34.889,17.055,66.04,42.02,87.043c4.108,3.459,8.466,6.628,13.026,9.504
			c8.771,5.538,18.309,9.956,28.434,13.04c10.69,3.253,22.009,5.03,33.723,5.086c0.179,0,0.348,0.01,0.527,0.01
			c0.179,0,0.348-0.01,0.526-0.01c13.839,0.085,26.878,3.629,38.277,9.825c25.445,13.82,42.753,40.783,42.753,71.723v9.284v3.844
			h-11.207c-6.543,0-9.156,4.607-5.801,10.229l29.031,48.643c3.367,5.622,8.852,5.622,12.204,0l29.045-48.643
			C274.465,426.078,271.856,421.471,265.298,421.471z M217.84,128.322v33.435v11.318c-2.163,1.917-4.706,3.786-7.618,5.579
			c-17.421,10.729-44.369,16.883-73.928,16.882c-29.561,0-56.507-6.154-73.928-16.882c-2.891-1.782-5.485-3.64-7.639-5.54v-11.358
			v-33.437v-16.843c7.434,3.816,15.802,7.081,25.042,9.737c17.066,4.902,36.609,7.498,56.514,7.498
			c19.907,0,39.451-2.596,56.516-7.498c9.243-2.656,17.609-5.921,25.04-9.735V128.322z M52.041,75.443
			c-2.457-2.667-5.381-6.752-5.381-11.088c0-4.317,2.791-9.123,8.068-13.783C67.91,38.93,96.63,28.186,136.284,28.186
			c39.653,0,68.374,10.743,81.556,22.386c5.278,4.661,8.069,9.467,8.069,13.784c0,4.335-2.926,8.421-5.381,11.086
			c-0.811,0.881-1.714,1.752-2.688,2.615c-2.162,1.918-4.708,3.788-7.626,5.587c-17.424,10.729-44.372,16.884-73.93,16.882
			c-29.561,0-56.507-6.152-73.928-16.88c-2.919-1.798-5.466-3.67-7.629-5.589C53.754,77.194,52.851,76.322,52.041,75.443z"/>
	</g>
</g>
</svg>
