<?xml version="1.0" encoding="utf-8"?>
<!-- Generator: Adobe Illustrator 16.0.0, SVG Export Plug-In . SVG Version: 6.00 Build 0)  -->
<!DOCTYPE svg PUBLIC "-//W3C//DTD SVG 1.1//EN" "http://www.w3.org/Graphics/SVG/1.1/DTD/svg11.dtd">
<svg version="1.1" id="Layer_1" xmlns="http://www.w3.org/2000/svg" xmlns:xlink="http://www.w3.org/1999/xlink" x="0px" y="0px"
	 width="1196.02px" height="571.498px" viewBox="0 0 1196.02 571.498" enable-background="new 0 0 1196.02 571.498"
	 xml:space="preserve">
<g>
	<g>
		<path fill="#404041" d="M39.285,437.262c7.447,0,13.713,0.931,18.803,2.793c5.088,1.861,9.152,4.468,12.195,7.818
			c3.041,3.353,5.215,7.42,6.518,12.196c1.303,4.78,1.953,10.024,1.953,15.731v59.02c-3.475,0.745-8.721,1.647-15.732,2.7
			c-7.014,1.054-14.926,1.582-23.736,1.582c-5.836,0-11.172-0.558-16.014-1.675c-4.84-1.117-8.969-2.916-12.381-5.4
			c-3.414-2.48-6.082-5.707-8.004-9.681C0.961,518.376,0,513.475,0,507.639c0-5.586,1.086-10.302,3.258-14.15
			c2.17-3.846,5.121-6.981,8.844-9.402c3.725-2.42,8.035-4.156,12.939-5.213c4.902-1.053,10.021-1.582,15.361-1.582
			c2.48,0,5.086,0.156,7.818,0.465c2.729,0.312,5.646,0.838,8.75,1.582v-3.723c0-2.607-0.311-5.088-0.932-7.447
			c-0.621-2.356-1.705-4.437-3.256-6.236c-1.555-1.799-3.602-3.195-6.145-4.19c-2.547-0.991-5.742-1.488-9.588-1.488
			c-5.215,0-9.994,0.372-14.336,1.116c-4.348,0.746-7.885,1.615-10.613,2.606l-2.793-18.246c2.854-0.991,7.012-1.983,12.475-2.978
			C27.244,437.76,33.076,437.262,39.285,437.262z M41.146,521.229c6.949,0,12.223-0.372,15.824-1.118v-24.947
			c-1.242-0.372-3.043-0.744-5.398-1.117c-2.359-0.373-4.965-0.559-7.82-0.559c-2.484,0-4.996,0.186-7.539,0.559
			c-2.547,0.373-4.842,1.057-6.889,2.048c-2.049,0.995-3.695,2.392-4.934,4.189c-1.244,1.801-1.863,4.066-1.863,6.796
			c0,5.338,1.676,9.029,5.027,11.077S35.436,521.229,41.146,521.229z"/>
		<path fill="#404041" d="M140.193,538.917c-6.701-0.125-12.258-0.87-16.662-2.234c-4.408-1.364-7.914-3.319-10.52-5.865
			c-2.607-2.542-4.439-5.708-5.492-9.495c-1.057-3.785-1.584-8.098-1.584-12.939V396.302l22.529-3.724v111.522
			c0,2.731,0.215,5.026,0.65,6.89c0.434,1.861,1.211,3.444,2.328,4.747c1.117,1.304,2.635,2.298,4.561,2.979
			c1.924,0.684,4.375,1.21,7.355,1.583L140.193,538.917z"/>
		<path fill="#404041" d="M156.205,488.833c0-8.563,1.271-16.072,3.816-22.527c2.543-6.452,5.926-11.822,10.146-16.104
			c4.219-4.282,9.059-7.508,14.523-9.682c5.459-2.17,11.045-3.258,16.756-3.258c13.404,0,23.859,4.16,31.371,12.474
			c7.508,8.317,11.264,20.729,11.264,37.236c0,1.243-0.031,2.64-0.092,4.189c-0.064,1.554-0.158,2.95-0.279,4.189h-64.232
			c0.619,7.819,3.379,13.87,8.285,18.152c4.9,4.282,12.008,6.423,21.316,6.423c5.461,0,10.455-0.494,14.988-1.488
			c4.529-0.992,8.098-2.049,10.705-3.166l2.979,18.432c-1.242,0.623-2.949,1.274-5.119,1.955c-2.174,0.684-4.656,1.305-7.447,1.862
			c-2.793,0.559-5.805,1.024-9.029,1.396c-3.23,0.372-6.518,0.558-9.869,0.558c-8.564,0-16.01-1.274-22.342-3.816
			c-6.33-2.543-11.543-6.08-15.639-10.612c-4.096-4.528-7.139-9.867-9.123-16.012C157.197,502.891,156.205,496.159,156.205,488.833z
			 M221.555,478.779c0-3.101-0.436-6.051-1.303-8.843c-0.871-2.793-2.143-5.214-3.816-7.262c-1.676-2.048-3.725-3.659-6.145-4.84
			c-2.42-1.179-5.307-1.769-8.658-1.769c-3.477,0-6.516,0.651-9.123,1.954c-2.605,1.304-4.811,3.012-6.609,5.12
			c-1.801,2.112-3.197,4.533-4.188,7.262c-0.996,2.731-1.678,5.524-2.049,8.377H221.555z"/>
		<path fill="#404041" d="M300.309,437.262c7.447,0,13.715,0.931,18.805,2.793c5.088,1.861,9.152,4.468,12.195,7.818
			c3.039,3.353,5.213,7.42,6.516,12.196c1.303,4.78,1.955,10.024,1.955,15.731v59.02c-3.475,0.745-8.723,1.647-15.732,2.7
			c-7.014,1.054-14.926,1.582-23.738,1.582c-5.836,0-11.17-0.558-16.012-1.675c-4.84-1.117-8.969-2.916-12.381-5.4
			c-3.414-2.48-6.082-5.707-8.006-9.681c-1.926-3.971-2.887-8.872-2.887-14.708c0-5.586,1.086-10.302,3.26-14.15
			c2.17-3.846,5.119-6.981,8.844-9.402c3.723-2.42,8.035-4.156,12.939-5.213c4.9-1.053,10.021-1.582,15.359-1.582
			c2.48,0,5.088,0.156,7.82,0.465c2.729,0.312,5.646,0.838,8.75,1.582v-3.723c0-2.607-0.311-5.088-0.932-7.447
			c-0.621-2.356-1.707-4.437-3.258-6.236c-1.553-1.799-3.6-3.195-6.143-4.19c-2.547-0.991-5.742-1.488-9.59-1.488
			c-5.213,0-9.992,0.372-14.336,1.116c-4.346,0.746-7.883,1.615-10.611,2.606l-2.793-18.246c2.854-0.991,7.012-1.983,12.475-2.978
			C288.27,437.76,294.102,437.262,300.309,437.262z M302.17,521.229c6.951,0,12.225-0.372,15.826-1.118v-24.947
			c-1.242-0.372-3.043-0.744-5.4-1.117s-4.965-0.559-7.818-0.559c-2.484,0-4.998,0.186-7.541,0.559
			c-2.545,0.373-4.84,1.057-6.889,2.048c-2.047,0.995-3.693,2.392-4.934,4.189c-1.242,1.801-1.861,4.066-1.861,6.796
			c0,5.338,1.676,9.029,5.027,11.077C291.93,520.205,296.461,521.229,302.17,521.229z"/>
		<path fill="#404041" d="M366.217,413.988l22.527-3.723v29.417h34.631v18.804h-34.631v39.656c0,7.82,1.24,13.406,3.725,16.756
			c2.48,3.353,6.701,5.027,12.66,5.027c4.096,0,7.727-0.433,10.891-1.303c3.164-0.867,5.68-1.676,7.541-2.421l3.725,17.874
			c-2.607,1.117-6.023,2.266-10.24,3.444c-4.223,1.178-9.188,1.769-14.895,1.769c-6.953,0-12.754-0.932-17.408-2.793
			c-4.654-1.862-8.348-4.561-11.078-8.099c-2.732-3.537-4.654-7.819-5.771-12.847s-1.676-10.766-1.676-17.223V413.988z"/>
		<path fill="#404041" d="M530.988,488.275c0,7.697-1.117,14.708-3.352,21.039c-2.234,6.33-5.4,11.729-9.496,16.197
			c-4.096,4.468-9.029,7.945-14.801,10.426s-12.135,3.724-19.084,3.724c-6.953,0-13.281-1.243-18.99-3.724
			c-5.711-2.48-10.611-5.958-14.709-10.426c-4.096-4.469-7.291-9.867-9.588-16.197c-2.297-6.331-3.445-13.342-3.445-21.039
			c0-7.694,1.148-14.677,3.445-20.945c2.297-6.266,5.521-11.636,9.682-16.104c4.158-4.468,9.092-7.913,14.803-10.333
			c5.707-2.42,11.977-3.631,18.803-3.631s13.127,1.211,18.898,3.631s10.705,5.865,14.801,10.333
			c4.096,4.469,7.291,9.839,9.59,16.104C529.84,473.599,530.988,480.581,530.988,488.275z M507.9,488.275
			c0-9.682-2.078-17.344-6.236-22.994c-4.158-5.646-9.959-8.471-17.408-8.471c-7.447,0-13.25,2.824-17.408,8.471
			c-4.16,5.65-6.236,13.313-6.236,22.994c0,9.807,2.076,17.565,6.236,23.273c4.158,5.71,9.961,8.563,17.408,8.563
			c7.449,0,13.25-2.853,17.408-8.563C505.822,505.841,507.9,498.082,507.9,488.275z"/>
		<path fill="#404041" d="M609.742,459.976c-1.861-0.619-4.439-1.271-7.729-1.955c-3.289-0.681-7.105-1.024-11.449-1.024
			c-2.484,0-5.121,0.251-7.912,0.745c-2.793,0.497-4.748,0.931-5.865,1.304v78.01H554.26v-92.719
			c4.344-1.611,9.773-3.133,16.291-4.561c6.516-1.426,13.746-2.142,21.689-2.142c1.49,0,3.227,0.093,5.215,0.279
			c1.982,0.187,3.971,0.437,5.955,0.745c1.984,0.312,3.91,0.684,5.773,1.117c1.861,0.436,3.352,0.838,4.469,1.211L609.742,459.976z"
			/>
		<path fill="#404041" d="M654.426,411.196c0,4.222-1.367,7.572-4.096,10.054c-2.732,2.484-5.957,3.724-9.682,3.724
			c-3.85,0-7.139-1.239-9.869-3.724c-2.73-2.481-4.094-5.832-4.094-10.054c0-4.344,1.363-7.756,4.094-10.239
			c2.73-2.482,6.02-3.725,9.869-3.725c3.725,0,6.949,1.242,9.682,3.725C653.059,403.44,654.426,406.853,654.426,411.196z
			 M652.006,537.055h-22.529v-97.372h22.529V537.055z"/>
		<path fill="#404041" d="M675.273,488.833c0-8.563,1.273-16.072,3.818-22.527c2.541-6.452,5.926-11.822,10.146-16.104
			c4.217-4.282,9.059-7.508,14.523-9.682c5.459-2.17,11.043-3.258,16.754-3.258c13.406,0,23.861,4.16,31.373,12.474
			c7.508,8.317,11.264,20.729,11.264,37.236c0,1.243-0.031,2.64-0.094,4.189c-0.063,1.554-0.156,2.95-0.279,4.189h-64.232
			c0.619,7.819,3.379,13.87,8.285,18.152c4.902,4.282,12.01,6.423,21.316,6.423c5.461,0,10.455-0.494,14.988-1.488
			c4.531-0.992,8.1-2.049,10.705-3.166l2.979,18.432c-1.242,0.623-2.947,1.274-5.119,1.955c-2.172,0.684-4.654,1.305-7.447,1.862
			c-2.793,0.559-5.803,1.024-9.029,1.396c-3.229,0.372-6.518,0.558-9.867,0.558c-8.564,0-16.012-1.274-22.344-3.816
			c-6.328-2.543-11.541-6.08-15.639-10.612c-4.096-4.528-7.137-9.867-9.121-16.012C676.266,502.891,675.273,496.159,675.273,488.833
			z M740.623,478.779c0-3.101-0.436-6.051-1.303-8.843c-0.869-2.793-2.141-5.214-3.816-7.262s-3.723-3.659-6.145-4.84
			c-2.42-1.179-5.307-1.769-8.656-1.769c-3.477,0-6.518,0.651-9.125,1.954c-2.605,1.304-4.811,3.012-6.607,5.12
			c-1.801,2.112-3.197,4.533-4.189,7.262c-0.994,2.731-1.676,5.524-2.047,8.377H740.623z"/>
		<path fill="#404041" d="M869.275,534.076c-4.467,1.367-10.086,2.606-16.85,3.724c-6.766,1.117-13.871,1.675-21.318,1.675
			c-7.697,0-14.586-1.18-20.666-3.537c-6.082-2.355-11.264-5.739-15.547-10.146c-4.281-4.404-7.572-9.742-9.867-16.012
			c-2.297-6.266-3.443-13.313-3.443-21.132c0-7.694,0.961-14.677,2.885-20.945c1.924-6.266,4.748-11.636,8.473-16.104
			c3.723-4.469,8.252-7.912,13.592-10.334c5.334-2.42,11.479-3.63,18.43-3.63c4.717,0,8.873,0.559,12.475,1.675
			c3.6,1.118,6.703,2.359,9.311,3.725v-46.731l22.527-3.724V534.076z M804.67,488.089c0,9.932,2.357,17.72,7.076,23.366
			c4.715,5.649,11.23,8.471,19.549,8.471c3.598,0,6.67-0.154,9.217-0.465c2.541-0.309,4.621-0.652,6.236-1.023v-55.854
			c-1.988-1.364-4.625-2.637-7.914-3.817c-3.291-1.178-6.795-1.77-10.52-1.77c-8.191,0-14.18,2.793-17.965,8.379
			C806.561,470.96,804.67,478.533,804.67,488.089z"/>
		<path fill="#404041" d="M930.34,437.262c7.449,0,13.715,0.931,18.805,2.793c5.088,1.861,9.152,4.468,12.195,7.818
			c3.041,3.353,5.213,7.42,6.518,12.196c1.303,4.78,1.955,10.024,1.955,15.731v59.02c-3.479,0.745-8.723,1.647-15.732,2.7
			c-7.016,1.054-14.928,1.582-23.74,1.582c-5.834,0-11.17-0.558-16.01-1.675c-4.842-1.117-8.971-2.916-12.383-5.4
			c-3.414-2.48-6.08-5.707-8.004-9.681c-1.926-3.971-2.887-8.872-2.887-14.708c0-5.586,1.084-10.302,3.258-14.15
			c2.17-3.846,5.121-6.981,8.846-9.402c3.723-2.42,8.033-4.156,12.938-5.213c4.902-1.053,10.021-1.582,15.361-1.582
			c2.48,0,5.088,0.156,7.818,0.465c2.729,0.312,5.646,0.838,8.75,1.582v-3.723c0-2.607-0.311-5.088-0.93-7.447
			c-0.623-2.356-1.707-4.437-3.258-6.236c-1.555-1.799-3.602-3.195-6.145-4.19c-2.545-0.991-5.742-1.488-9.588-1.488
			c-5.213,0-9.994,0.372-14.336,1.116c-4.348,0.746-7.883,1.615-10.611,2.606l-2.793-18.246c2.854-0.991,7.01-1.983,12.473-2.978
			C918.301,437.76,924.133,437.262,930.34,437.262z M932.203,521.229c6.949,0,12.223-0.372,15.824-1.118v-24.947
			c-1.242-0.372-3.043-0.744-5.398-1.117c-2.359-0.373-4.967-0.559-7.82-0.559c-2.484,0-4.996,0.186-7.539,0.559
			c-2.545,0.373-4.842,1.057-6.889,2.048c-2.049,0.995-3.695,2.392-4.934,4.189c-1.244,1.801-1.863,4.066-1.863,6.796
			c0,5.338,1.676,9.029,5.027,11.077C921.965,520.205,926.492,521.229,932.203,521.229z"/>
		<path fill="#404041" d="M1085.057,488.461c0,7.447-0.963,14.275-2.885,20.48c-1.926,6.208-4.688,11.543-8.285,16.012
			c-3.602,4.468-8.1,7.945-13.498,10.427c-5.4,2.481-11.514,3.723-18.34,3.723c-4.594,0-8.814-0.558-12.658-1.675
			c-3.85-1.117-7.016-2.356-9.496-3.725v37.795h-22.529v-128.65c4.59-1.24,10.24-2.421,16.943-3.539
			c6.701-1.116,13.777-1.675,21.225-1.675c7.693,0,14.582,1.181,20.666,3.537c6.08,2.359,11.264,5.743,15.545,10.147
			c4.283,4.407,7.57,9.746,9.869,16.012C1083.908,473.599,1085.057,480.642,1085.057,488.461z M1061.971,488.833
			c0-10.054-2.266-17.873-6.795-23.458c-4.533-5.586-11.824-8.379-21.877-8.379c-2.113,0-4.314,0.094-6.609,0.28
			c-2.299,0.187-4.563,0.591-6.795,1.21v55.669c1.982,1.367,4.621,2.638,7.912,3.816c3.287,1.181,6.795,1.768,10.52,1.768
			c8.191,0,14.178-2.792,17.967-8.377C1060.078,505.775,1061.971,498.268,1061.971,488.833z"/>
		<path fill="#404041" d="M1196.02,488.461c0,7.447-0.963,14.275-2.885,20.48c-1.926,6.208-4.688,11.543-8.285,16.012
			c-3.602,4.468-8.1,7.945-13.498,10.427c-5.4,2.481-11.514,3.723-18.338,3.723c-4.596,0-8.816-0.558-12.66-1.675
			c-3.85-1.117-7.016-2.356-9.496-3.725v37.795h-22.529v-128.65c4.592-1.24,10.24-2.421,16.943-3.539
			c6.701-1.116,13.777-1.675,21.225-1.675c7.693,0,14.582,1.181,20.666,3.537c6.08,2.359,11.264,5.743,15.545,10.147
			c4.283,4.407,7.57,9.746,9.869,16.012C1194.871,473.599,1196.02,480.642,1196.02,488.461z M1172.934,488.833
			c0-10.054-2.266-17.873-6.795-23.458c-4.533-5.586-11.822-8.379-21.879-8.379c-2.111,0-4.313,0.094-6.607,0.28
			c-2.299,0.187-4.563,0.591-6.795,1.21v55.669c1.984,1.367,4.621,2.638,7.912,3.816c3.287,1.181,6.795,1.768,10.52,1.768
			c8.191,0,14.178-2.792,17.965-8.377C1171.039,505.775,1172.934,498.268,1172.934,488.833z"/>
	</g>
	<g>
		<path fill="#00A551" d="M673.904,212c3.471,4.125,7.223,8.004,11.217,11.617c20.184,18.264,46.695,29.633,75.82,30.402
			c1.043,0.023,2.078,0.08,3.131,0.08h9.285h3.844v11.206c0,6.548,4.607,9.161,10.229,5.806l48.643-29.037
			c5.623-3.361,5.623-8.85,0-12.202l-48.643-29.041c-5.621-3.348-10.229-0.743-10.229,5.81v11.207h-3.844h-9.285
			c-30.939,0-57.902-17.313-71.723-42.762c-1.43,4.568-3.121,9.016-5.021,13.345C683.672,196.779,679.16,204.666,673.904,212z"/>
		<path fill="#00A551" d="M777.201,7.276v11.206h-3.844h-9.285c-1.053,0-2.088,0.047-3.131,0.076
			c-29.125,0.768-55.637,12.141-75.82,30.402c-3.994,3.613-7.746,7.492-11.217,11.617c-3.451,4.104-6.627,8.465-9.506,13.02
			c-5.537,8.777-9.965,18.318-13.039,28.444c-3.262,10.68-5.029,21.999-5.086,33.722c0,0.179-0.01,0.348-0.01,0.527
			c0,0.178,0.01,0.348,0.01,0.526c-0.084,13.839-3.629,26.868-9.824,38.269c-13.365,24.61-39.025,41.609-68.68,42.702
			c-1.01,0.038-2.023,0.06-3.043,0.06h-2.496v-0.01c11.035-21.482,17.219-50.369,17.219-81.557c0-31.186-6.182-60.068-17.213-81.547
			h2.49c1.02,0,2.035,0.021,3.045,0.059c29.652,1.094,55.313,18.088,68.678,42.694c1.43-4.564,3.121-9.007,5.02-13.341
			c3.658-8.354,8.17-16.24,13.426-23.568c-21.002-24.971-52.154-41.1-87.043-42.02c-1.039-0.029-2.076-0.076-3.125-0.076h-44.113
			h-50.266h-50.262c-6.891,0-13.551,1.811-19.816,5.299c-10.363,5.771-19.65,16.143-27.113,30.549
			c-11.236,21.685-17.426,50.792-17.426,81.961c0,31.167,6.189,60.274,17.426,81.957c7.463,14.408,16.75,24.779,27.113,30.551
			c6.266,3.49,12.926,5.301,19.816,5.301h50.262h50.266h44.113c1.049,0,2.086-0.057,3.125-0.08
			c34.889-0.922,66.041-17.055,87.043-42.02c3.459-4.108,6.629-8.467,9.504-13.025c5.539-8.771,9.957-18.31,13.041-28.434
			c3.252-10.691,5.029-22.01,5.086-33.724c0-0.179,0.01-0.349,0.01-0.526c0-0.18-0.01-0.349-0.01-0.527
			c0.084-13.838,3.629-26.878,9.824-38.276c13.82-25.444,40.783-42.753,71.723-42.753h9.285h3.844v11.207
			c0,6.543,4.607,9.156,10.229,5.801l48.643-29.031c5.623-3.367,5.623-8.853,0-12.204L787.43,1.461
			C781.809-1.891,777.201,0.719,777.201,7.276z M484.053,54.734h33.434h11.318c1.918,2.162,3.787,4.705,5.58,7.618
			c10.729,17.421,16.883,44.368,16.881,73.929c0,29.561-6.154,56.506-16.881,73.928c-1.783,2.891-3.641,5.484-5.541,7.639h-11.357
			h-33.438h-16.842c3.816-7.434,7.08-15.803,9.736-25.043c4.902-17.066,7.498-36.609,7.498-56.514
			c0-19.907-2.596-39.451-7.498-56.517c-2.656-9.243-5.92-17.608-9.734-25.04H484.053z M431.174,220.534
			c-2.668,2.456-6.752,5.382-11.088,5.382c-4.318,0-9.123-2.791-13.783-8.068c-11.643-13.184-22.387-41.902-22.387-81.557
			s10.742-68.374,22.385-81.557c4.662-5.277,9.467-8.069,13.785-8.069c4.334,0,8.42,2.926,11.086,5.382
			c0.881,0.811,1.752,1.714,2.615,2.688c1.918,2.162,3.787,4.708,5.586,7.627c10.73,17.424,16.885,44.371,16.883,73.93
			c0,29.561-6.152,56.506-16.881,73.928c-1.797,2.918-3.67,5.465-5.588,7.629C432.924,218.82,432.053,219.724,431.174,220.534z"/>
	</g>
</g>
</svg>
