<?xml version="1.0" encoding="utf-8"?>
<!-- Generator: Adobe Illustrator 16.0.0, SVG Export Plug-In . SVG Version: 6.00 Build 0)  -->
<!DOCTYPE svg PUBLIC "-//W3C//DTD SVG 1.1//EN" "http://www.w3.org/Graphics/SVG/1.1/DTD/svg11.dtd">
<svg version="1.1" id="Layer_1" xmlns="http://www.w3.org/2000/svg" xmlns:xlink="http://www.w3.org/1999/xlink" x="0px" y="0px"
	 width="1196.021px" height="718.283px" viewBox="0 0 1196.021 718.283" enable-background="new 0 0 1196.021 718.283"
	 xml:space="preserve">
<g>
	<g>
		<path fill="#404041" d="M39.285,584.047c7.447,0,13.713,0.931,18.804,2.793c5.088,1.861,9.151,4.468,12.194,7.818
			c3.041,3.353,5.215,7.42,6.518,12.196c1.303,4.78,1.954,10.024,1.954,15.731v59.02c-3.476,0.745-8.722,1.647-15.732,2.7
			c-7.014,1.054-14.927,1.582-23.737,1.582c-5.836,0-11.172-0.558-16.013-1.675s-8.969-2.916-12.381-5.4
			c-3.415-2.48-6.083-5.707-8.005-9.681C0.961,665.161,0,660.26,0,654.424c0-5.586,1.086-10.302,3.259-14.15
			c2.169-3.846,5.12-6.981,8.844-9.402c3.724-2.42,8.034-4.156,12.939-5.213c4.901-1.053,10.021-1.582,15.36-1.582
			c2.48,0,5.087,0.156,7.819,0.465c2.728,0.312,5.646,0.838,8.749,1.582V622.4c0-2.607-0.311-5.088-0.931-7.447
			c-0.622-2.356-1.706-4.437-3.257-6.236c-1.555-1.799-3.602-3.195-6.145-4.19c-2.546-0.991-5.742-1.488-9.588-1.488
			c-5.214,0-9.993,0.372-14.336,1.116c-4.347,0.746-7.884,1.615-10.612,2.606l-2.794-18.246c2.854-0.991,7.012-1.983,12.475-2.978
			C27.244,584.545,33.076,584.047,39.285,584.047z M41.146,668.015c6.949,0,12.224-0.372,15.824-1.118v-24.947
			c-1.241-0.372-3.042-0.744-5.398-1.117c-2.359-0.373-4.965-0.559-7.819-0.559c-2.484,0-4.997,0.186-7.54,0.559
			c-2.546,0.373-4.841,1.057-6.889,2.048c-2.048,0.995-3.695,2.392-4.934,4.189c-1.243,1.801-1.862,4.066-1.862,6.796
			c0,5.338,1.676,9.029,5.027,11.077C30.906,666.99,35.436,668.015,41.146,668.015z"/>
		<path fill="#404041" d="M140.194,685.702c-6.702-0.125-12.259-0.87-16.663-2.234c-4.407-1.364-7.913-3.319-10.52-5.865
			c-2.606-2.542-4.439-5.708-5.492-9.495c-1.057-3.785-1.583-8.098-1.583-12.939V543.087l22.528-3.724v111.522
			c0,2.731,0.216,5.026,0.651,6.89c0.434,1.861,1.21,3.444,2.327,4.747c1.117,1.304,2.636,2.298,4.562,2.979
			c1.923,0.684,4.375,1.21,7.354,1.583L140.194,685.702z"/>
		<path fill="#404041" d="M156.205,635.618c0-8.563,1.271-16.072,3.816-22.527c2.543-6.452,5.926-11.822,10.146-16.104
			c4.219-4.282,9.06-7.508,14.523-9.682c5.459-2.17,11.045-3.258,16.756-3.258c13.405,0,23.86,4.16,31.371,12.474
			c7.509,8.317,11.265,20.729,11.265,37.236c0,1.243-0.032,2.64-0.093,4.189c-0.064,1.554-0.158,2.95-0.279,4.189h-64.232
			c0.619,7.819,3.379,13.87,8.285,18.152c4.9,4.282,12.008,6.423,21.317,6.423c5.46,0,10.455-0.494,14.987-1.488
			c4.529-0.992,8.099-2.049,10.705-3.166l2.979,18.432c-1.241,0.623-2.949,1.274-5.119,1.955c-2.174,0.684-4.655,1.305-7.447,1.862
			c-2.793,0.559-5.804,1.024-9.029,1.396c-3.229,0.372-6.518,0.558-9.868,0.558c-8.564,0-16.011-1.274-22.342-3.816
			c-6.33-2.543-11.544-6.08-15.64-10.612c-4.096-4.528-7.139-9.867-9.122-16.012C157.197,649.676,156.205,642.944,156.205,635.618z
			 M221.555,625.564c0-3.101-0.436-6.051-1.303-8.843c-0.87-2.793-2.142-5.214-3.816-7.262c-1.676-2.048-3.725-3.659-6.145-4.84
			c-2.42-1.179-5.306-1.769-8.658-1.769c-3.477,0-6.516,0.651-9.122,1.954c-2.606,1.304-4.812,3.012-6.609,5.12
			c-1.802,2.112-3.197,4.533-4.188,7.262c-0.996,2.731-1.677,5.524-2.049,8.377H221.555z"/>
		<path fill="#404041" d="M300.31,584.047c7.445,0,13.713,0.931,18.803,2.793c5.088,1.861,9.152,4.468,12.195,7.818
			c3.041,3.353,5.215,7.42,6.516,12.196c1.305,4.78,1.957,10.024,1.957,15.731v59.02c-3.477,0.745-8.723,1.647-15.734,2.7
			c-7.014,1.054-14.926,1.582-23.736,1.582c-5.838,0-11.172-0.558-16.012-1.675c-4.842-1.117-8.971-2.916-12.383-5.4
			c-3.414-2.48-6.082-5.707-8.004-9.681c-1.926-3.971-2.887-8.872-2.887-14.708c0-5.586,1.085-10.302,3.258-14.15
			c2.17-3.846,5.119-6.981,8.844-9.402c3.725-2.42,8.035-4.156,12.939-5.213c4.902-1.053,10.021-1.582,15.361-1.582
			c2.48,0,5.086,0.156,7.818,0.465c2.729,0.312,5.646,0.838,8.75,1.582V622.4c0-2.607-0.311-5.088-0.93-7.447
			c-0.623-2.356-1.709-4.437-3.258-6.236c-1.555-1.799-3.602-3.195-6.145-4.19c-2.545-0.991-5.742-1.488-9.588-1.488
			c-5.213,0-9.994,0.372-14.338,1.116c-4.346,0.746-7.883,1.615-10.611,2.606l-2.793-18.246c2.854-0.991,7.012-1.983,12.475-2.978
			C288.269,584.545,294.101,584.047,300.31,584.047z M302.169,668.015c6.951,0,12.225-0.372,15.826-1.118v-24.947
			c-1.242-0.372-3.043-0.744-5.398-1.117c-2.359-0.373-4.967-0.559-7.82-0.559c-2.484,0-4.996,0.186-7.539,0.559
			c-2.547,0.373-4.842,1.057-6.889,2.048c-2.049,0.995-3.695,2.392-4.934,4.189c-1.244,1.801-1.863,4.066-1.863,6.796
			c0,5.338,1.676,9.029,5.027,11.077S296.46,668.015,302.169,668.015z"/>
		<path fill="#404041" d="M366.216,560.773l22.529-3.723v29.417h34.631v18.804h-34.631v39.656c0,7.82,1.238,13.406,3.723,16.756
			c2.482,3.353,6.703,5.027,12.66,5.027c4.098,0,7.727-0.433,10.893-1.303c3.164-0.867,5.678-1.676,7.541-2.421l3.723,17.874
			c-2.607,1.117-6.023,2.266-10.24,3.444c-4.221,1.178-9.186,1.769-14.895,1.769c-6.951,0-12.752-0.932-17.408-2.793
			c-4.654-1.862-8.348-4.561-11.078-8.099c-2.73-3.537-4.652-7.819-5.771-12.847c-1.117-5.027-1.676-10.766-1.676-17.223V560.773z"
			/>
		<path fill="#404041" d="M530.988,635.061c0,7.697-1.117,14.708-3.35,21.039c-2.236,6.33-5.4,11.729-9.496,16.197
			c-4.096,4.468-9.029,7.945-14.803,10.426c-5.77,2.48-12.133,3.724-19.082,3.724c-6.953,0-13.283-1.243-18.99-3.724
			c-5.711-2.48-10.613-5.958-14.709-10.426c-4.096-4.469-7.293-9.867-9.59-16.197c-2.297-6.331-3.443-13.342-3.443-21.039
			c0-7.694,1.146-14.677,3.443-20.945c2.297-6.266,5.523-11.636,9.684-16.104c4.156-4.468,9.09-7.913,14.801-10.333
			c5.709-2.42,11.977-3.631,18.805-3.631c6.824,0,13.125,1.211,18.896,3.631s10.707,5.865,14.803,10.333
			c4.096,4.469,7.289,9.839,9.588,16.104C529.839,620.384,530.988,627.366,530.988,635.061z M507.902,635.061
			c0-9.682-2.08-17.344-6.236-22.994c-4.16-5.646-9.961-8.471-17.408-8.471s-13.252,2.824-17.408,8.471
			c-4.16,5.65-6.236,13.313-6.236,22.994c0,9.807,2.076,17.565,6.236,23.273c4.156,5.71,9.961,8.563,17.408,8.563
			s13.248-2.853,17.408-8.563C505.822,652.626,507.902,644.867,507.902,635.061z"/>
		<path fill="#404041" d="M609.742,606.761c-1.861-0.619-4.439-1.271-7.727-1.955c-3.291-0.681-7.105-1.024-11.449-1.024
			c-2.486,0-5.121,0.251-7.914,0.745c-2.791,0.497-4.748,0.931-5.865,1.304v78.01h-22.527v-92.719
			c4.344-1.611,9.773-3.133,16.291-4.561c6.516-1.426,13.746-2.142,21.691-2.142c1.49,0,3.225,0.093,5.213,0.279
			c1.984,0.187,3.971,0.437,5.957,0.745c1.984,0.312,3.91,0.684,5.771,1.117c1.861,0.436,3.352,0.838,4.469,1.211L609.742,606.761z"
			/>
		<path fill="#404041" d="M654.425,557.981c0,4.222-1.367,7.572-4.096,10.054c-2.732,2.484-5.957,3.724-9.682,3.724
			c-3.848,0-7.137-1.239-9.869-3.724c-2.73-2.481-4.094-5.832-4.094-10.054c0-4.344,1.363-7.756,4.094-10.239
			c2.732-2.482,6.021-3.725,9.869-3.725c3.725,0,6.949,1.242,9.682,3.725C653.058,550.226,654.425,553.638,654.425,557.981z
			 M652.005,683.84h-22.527v-97.372h22.527V683.84z"/>
		<path fill="#404041" d="M675.275,635.618c0-8.563,1.271-16.072,3.816-22.527c2.543-6.452,5.926-11.822,10.146-16.104
			c4.219-4.282,9.059-7.508,14.523-9.682c5.459-2.17,11.045-3.258,16.756-3.258c13.404,0,23.859,4.16,31.371,12.474
			c7.508,8.317,11.264,20.729,11.264,37.236c0,1.243-0.031,2.64-0.094,4.189c-0.063,1.554-0.156,2.95-0.277,4.189h-64.234
			c0.621,7.819,3.381,13.87,8.285,18.152c4.902,4.282,12.01,6.423,21.318,6.423c5.461,0,10.455-0.494,14.988-1.488
			c4.529-0.992,8.098-2.049,10.705-3.166l2.979,18.432c-1.242,0.623-2.949,1.274-5.119,1.955c-2.174,0.684-4.656,1.305-7.449,1.862
			c-2.791,0.559-5.803,1.024-9.027,1.396c-3.23,0.372-6.518,0.558-9.869,0.558c-8.564,0-16.012-1.274-22.342-3.816
			c-6.33-2.543-11.543-6.08-15.639-10.612c-4.096-4.528-7.139-9.867-9.121-16.012C676.265,649.676,675.275,642.944,675.275,635.618z
			 M740.625,625.564c0-3.101-0.436-6.051-1.303-8.843c-0.871-2.793-2.143-5.214-3.816-7.262c-1.678-2.048-3.725-3.659-6.145-4.84
			c-2.42-1.179-5.307-1.769-8.658-1.769c-3.477,0-6.516,0.651-9.123,1.954c-2.605,1.304-4.811,3.012-6.609,5.12
			c-1.801,2.112-3.195,4.533-4.189,7.262c-0.994,2.731-1.676,5.524-2.047,8.377H740.625z"/>
		<path fill="#404041" d="M869.275,680.861c-4.467,1.367-10.084,2.606-16.85,3.724s-13.869,1.675-21.318,1.675
			c-7.695,0-14.586-1.18-20.666-3.537c-6.082-2.355-11.264-5.739-15.545-10.146c-4.283-4.404-7.572-9.742-9.869-16.012
			c-2.297-6.266-3.441-13.313-3.441-21.132c0-7.694,0.959-14.677,2.885-20.945c1.922-6.266,4.748-11.636,8.471-16.104
			c3.725-4.469,8.252-7.912,13.592-10.334c5.336-2.42,11.479-3.63,18.432-3.63c4.717,0,8.871,0.559,12.475,1.675
			c3.598,1.118,6.701,2.359,9.309,3.725v-46.731l22.527-3.724V680.861z M804.671,634.874c0,9.932,2.355,17.72,7.074,23.366
			c4.717,5.649,11.23,8.471,19.549,8.471c3.598,0,6.67-0.154,9.217-0.465c2.541-0.309,4.621-0.652,6.236-1.023v-55.854
			c-1.986-1.364-4.625-2.637-7.912-3.817c-3.291-1.178-6.797-1.77-10.52-1.77c-8.193,0-14.182,2.793-17.965,8.379
			C806.562,617.745,804.671,625.318,804.671,634.874z"/>
		<path fill="#404041" d="M930.341,584.047c7.447,0,13.715,0.931,18.805,2.793c5.088,1.861,9.152,4.468,12.195,7.818
			c3.039,3.353,5.211,7.42,6.516,12.196c1.303,4.78,1.955,10.024,1.955,15.731v59.02c-3.477,0.745-8.723,1.647-15.732,2.7
			c-7.014,1.054-14.926,1.582-23.738,1.582c-5.836,0-11.17-0.558-16.012-1.675s-8.969-2.916-12.381-5.4
			c-3.416-2.48-6.082-5.707-8.006-9.681c-1.926-3.971-2.885-8.872-2.885-14.708c0-5.586,1.084-10.302,3.258-14.15
			c2.17-3.846,5.119-6.981,8.844-9.402c3.723-2.42,8.033-4.156,12.939-5.213c4.9-1.053,10.021-1.582,15.359-1.582
			c2.48,0,5.088,0.156,7.82,0.465c2.729,0.312,5.645,0.838,8.75,1.582V622.4c0-2.607-0.311-5.088-0.932-7.447
			c-0.621-2.356-1.707-4.437-3.258-6.236c-1.553-1.799-3.6-3.195-6.143-4.19c-2.547-0.991-5.742-1.488-9.59-1.488
			c-5.213,0-9.992,0.372-14.336,1.116c-4.346,0.746-7.883,1.615-10.611,2.606l-2.793-18.246c2.854-0.991,7.01-1.983,12.473-2.978
			C918.3,584.545,924.132,584.047,930.341,584.047z M932.205,668.015c6.949,0,12.223-0.372,15.824-1.118v-24.947
			c-1.242-0.372-3.043-0.744-5.4-1.117s-4.965-0.559-7.82-0.559c-2.482,0-4.996,0.186-7.539,0.559
			c-2.545,0.373-4.84,1.057-6.889,2.048c-2.049,0.995-3.693,2.392-4.934,4.189c-1.242,1.801-1.861,4.066-1.861,6.796
			c0,5.338,1.676,9.029,5.027,11.077S926.494,668.015,932.205,668.015z"/>
		<path fill="#404041" d="M1085.058,635.246c0,7.447-0.963,14.275-2.887,20.48c-1.926,6.208-4.688,11.543-8.285,16.012
			c-3.602,4.468-8.098,7.945-13.498,10.427c-5.398,2.481-11.514,3.723-18.34,3.723c-4.592,0-8.813-0.558-12.658-1.675
			c-3.85-1.117-7.014-2.356-9.496-3.725v37.795h-22.527v-128.65c4.59-1.24,10.24-2.421,16.941-3.539
			c6.703-1.116,13.777-1.675,21.225-1.675c7.695,0,14.584,1.181,20.666,3.537c6.082,2.359,11.264,5.743,15.547,10.147
			c4.281,4.407,7.57,9.746,9.867,16.012C1083.91,620.384,1085.058,627.427,1085.058,635.246z M1061.972,635.618
			c0-10.054-2.268-17.873-6.797-23.458c-4.531-5.586-11.822-8.379-21.877-8.379c-2.111,0-4.314,0.094-6.609,0.28
			c-2.297,0.187-4.561,0.591-6.795,1.21v55.669c1.982,1.367,4.623,2.638,7.912,3.816c3.287,1.181,6.797,1.768,10.52,1.768
			c8.191,0,14.18-2.792,17.967-8.377C1060.078,652.561,1061.972,645.053,1061.972,635.618z"/>
		<path fill="#404041" d="M1196.021,635.246c0,7.447-0.963,14.275-2.887,20.48c-1.924,6.208-4.688,11.543-8.285,16.012
			c-3.602,4.468-8.098,7.945-13.498,10.427c-5.398,2.481-11.514,3.723-18.338,3.723c-4.594,0-8.814-0.558-12.66-1.675
			c-3.85-1.117-7.014-2.356-9.496-3.725v37.795h-22.527v-128.65c4.592-1.24,10.24-2.421,16.941-3.539
			c6.703-1.116,13.779-1.675,21.227-1.675c7.693,0,14.582,1.181,20.664,3.537c6.08,2.359,11.266,5.743,15.547,10.147
			c4.281,4.407,7.57,9.746,9.867,16.012C1194.871,620.384,1196.021,627.427,1196.021,635.246z M1172.935,635.618
			c0-10.054-2.268-17.873-6.797-23.458c-4.531-5.586-11.822-8.379-21.877-8.379c-2.111,0-4.313,0.094-6.607,0.28
			c-2.299,0.187-4.563,0.591-6.797,1.21v55.669c1.984,1.367,4.623,2.638,7.914,3.816c3.285,1.181,6.795,1.768,10.518,1.768
			c8.191,0,14.18-2.792,17.967-8.377C1171.041,652.561,1172.935,645.053,1172.935,635.618z"/>
	</g>
	<g>
		<path fill="#00A551" d="M522.298,318.175c-4.127,3.47-8.006,7.222-11.619,11.216c-18.262,20.185-29.631,46.696-30.4,75.82
			c-0.023,1.044-0.08,2.078-0.08,3.132v9.284v3.844h-11.207c-6.549,0-9.16,4.607-5.805,10.229l29.037,48.643
			c3.359,5.622,8.85,5.622,12.201,0l29.041-48.643c3.348-5.622,0.742-10.229-5.811-10.229h-11.205v-3.844v-9.284
			c0-30.939,17.313-57.902,42.762-71.723c-4.57-1.43-9.016-3.121-13.346-5.021C537.519,327.942,529.63,323.43,522.298,318.175z"/>
		<path fill="#00A551" d="M727.021,421.471h-11.207v-3.844v-9.284c0-1.054-0.045-2.088-0.074-3.132
			c-0.768-29.124-12.143-55.636-30.402-75.82c-3.613-3.994-7.492-7.746-11.617-11.216c-4.104-3.451-8.465-6.628-13.02-9.506
			c-8.777-5.537-18.32-9.965-28.445-13.039c-10.68-3.263-21.998-5.029-33.723-5.086c-0.178,0-0.346-0.01-0.525-0.01
			s-0.348,0.01-0.527,0.01c-13.838-0.085-26.869-3.63-38.268-9.825c-24.611-13.364-41.609-39.024-42.703-68.679
			c-0.037-1.01-0.059-2.024-0.059-3.044v-2.495h0.01c21.482,11.035,50.369,17.218,81.557,17.218
			c31.184,0,60.068-6.181,81.547-17.212v2.489c0,1.021-0.021,2.036-0.059,3.046c-1.096,29.652-18.09,55.313-42.695,68.677
			c4.564,1.43,9.008,3.122,13.342,5.021c8.352,3.658,16.24,8.17,23.568,13.426c24.971-21.003,41.098-52.154,42.02-87.043
			c0.029-1.039,0.074-2.077,0.074-3.126v-44.112v-50.266V64.355c0-6.89-1.809-13.55-5.299-19.816
			c-5.771-10.363-16.141-19.649-30.547-27.113C658.283,6.189,629.175,0,598.007,0s-60.275,6.189-81.959,17.426
			c-14.406,7.464-24.777,16.75-30.549,27.113c-3.492,6.267-5.301,12.927-5.301,19.816v50.263v50.266v44.112
			c0,1.049,0.057,2.087,0.08,3.126c0.922,34.889,17.055,66.04,42.02,87.043c4.107,3.459,8.465,6.628,13.025,9.504
			c8.771,5.538,18.309,9.956,28.434,13.04c10.689,3.253,22.01,5.03,33.723,5.086c0.18,0,0.348,0.01,0.527,0.01
			s0.348-0.01,0.525-0.01c13.84,0.085,26.879,3.629,38.277,9.825c25.445,13.82,42.754,40.783,42.754,71.723v9.284v3.844h-11.207
			c-6.543,0-9.156,4.607-5.801,10.229l29.031,48.643c3.367,5.622,8.852,5.622,12.203,0l29.045-48.643
			C736.187,426.078,733.58,421.471,727.021,421.471z M679.564,128.322v33.435v11.318c-2.164,1.917-4.707,3.786-7.619,5.579
			c-17.42,10.729-44.369,16.883-73.928,16.882c-29.561,0-56.508-6.154-73.928-16.882c-2.891-1.782-5.486-3.64-7.639-5.54v-11.358
			v-33.437v-16.843c7.434,3.816,15.803,7.081,25.043,9.737c17.064,4.902,36.609,7.498,56.514,7.498
			c19.906,0,39.451-2.596,56.516-7.498c9.242-2.656,17.609-5.921,25.041-9.735V128.322z M513.763,75.443
			c-2.457-2.667-5.381-6.752-5.381-11.088c0-4.317,2.791-9.123,8.068-13.783c13.182-11.643,41.902-22.387,81.557-22.387
			c39.652,0,68.373,10.743,81.557,22.386c5.277,4.661,8.068,9.467,8.068,13.784c0,4.335-2.926,8.421-5.381,11.086
			c-0.811,0.881-1.715,1.752-2.688,2.615c-2.162,1.918-4.709,3.788-7.627,5.587c-17.424,10.729-44.371,16.884-73.93,16.882
			c-29.561,0-56.508-6.152-73.928-16.88c-2.918-1.798-5.467-3.67-7.629-5.589C515.476,77.194,514.574,76.322,513.763,75.443z"/>
	</g>
</g>
</svg>
