<?xml version="1.0" encoding="utf-8"?>
<!-- Generator: Adobe Illustrator 16.0.0, SVG Export Plug-In . SVG Version: 6.00 Build 0)  -->
<!DOCTYPE svg PUBLIC "-//W3C//DTD SVG 1.1//EN" "http://www.w3.org/Graphics/SVG/1.1/DTD/svg11.dtd">
<svg version="1.1" id="Layer_1" xmlns="http://www.w3.org/2000/svg" xmlns:xlink="http://www.w3.org/1999/xlink" x="0px" y="0px"
	 width="1196.02px" height="718.284px" viewBox="0 0 1196.02 718.284" enable-background="new 0 0 1196.02 718.284"
	 xml:space="preserve">
<g>
	<g>
		<path fill="#404041" d="M39.284,584.047c7.448,0,13.713,0.931,18.804,2.792c5.088,1.862,9.151,4.469,12.195,7.82
			c3.04,3.352,5.214,7.418,6.517,12.195c1.303,4.779,1.955,10.024,1.955,15.732v59.019c-3.476,0.745-8.721,1.647-15.732,2.7
			c-7.014,1.053-14.926,1.582-23.738,1.582c-5.835,0-11.171-0.559-16.012-1.676c-4.84-1.117-8.969-2.915-12.381-5.398
			c-3.415-2.481-6.083-5.707-8.005-9.682C0.96,665.161,0,660.259,0,654.424c0-5.587,1.085-10.302,3.258-14.15
			c2.169-3.846,5.12-6.981,8.844-9.401c3.723-2.422,8.035-4.157,12.939-5.214c4.901-1.053,10.021-1.583,15.36-1.583
			c2.48,0,5.087,0.157,7.819,0.466c2.728,0.312,5.646,0.838,8.75,1.583v-3.725c0-2.605-0.311-5.088-0.931-7.446
			c-0.622-2.356-1.707-4.437-3.257-6.237c-1.554-1.798-3.602-3.194-6.145-4.189c-2.546-0.991-5.742-1.488-9.588-1.488
			c-5.214,0-9.993,0.371-14.336,1.116c-4.346,0.745-7.883,1.615-10.612,2.606l-2.793-18.246c2.854-0.992,7.011-1.984,12.474-2.979
			C27.244,584.544,33.076,584.047,39.284,584.047z M41.146,668.015c6.95,0,12.224-0.372,15.825-1.117v-24.948
			c-1.242-0.372-3.042-0.745-5.398-1.117c-2.359-0.372-4.966-0.559-7.82-0.559c-2.484,0-4.998,0.187-7.541,0.559
			c-2.545,0.372-4.84,1.056-6.888,2.048c-2.048,0.996-3.695,2.391-4.934,4.189c-1.243,1.801-1.862,4.066-1.862,6.795
			c0,5.339,1.676,9.029,5.027,11.078C30.906,666.99,35.435,668.015,41.146,668.015z"/>
		<path fill="#404041" d="M140.194,685.702c-6.703-0.125-12.259-0.871-16.663-2.234c-4.407-1.364-7.913-3.318-10.52-5.865
			c-2.606-2.542-4.439-5.707-5.492-9.495c-1.056-3.784-1.583-8.099-1.583-12.939V543.087l22.528-3.724v111.522
			c0,2.73,0.216,5.027,0.651,6.889c0.434,1.862,1.21,3.445,2.327,4.748c1.118,1.303,2.636,2.299,4.562,2.979
			c1.923,0.684,4.375,1.21,7.354,1.583L140.194,685.702z"/>
		<path fill="#404041" d="M156.205,635.618c0-8.563,1.271-16.072,3.816-22.527c2.543-6.451,5.926-11.822,10.147-16.104
			c4.218-4.282,9.059-7.509,14.522-9.681c5.46-2.171,11.045-3.259,16.756-3.259c13.405,0,23.86,4.159,31.372,12.474
			c7.508,8.318,11.264,20.73,11.264,37.236c0,1.243-0.033,2.639-0.093,4.189c-0.063,1.555-0.157,2.949-0.279,4.189h-64.233
			c0.619,7.819,3.38,13.87,8.285,18.152c4.901,4.283,12.009,6.423,21.318,6.423c5.459,0,10.455-0.494,14.987-1.488
			c4.53-0.992,8.099-2.049,10.706-3.166l2.979,18.432c-1.242,0.623-2.95,1.274-5.12,1.956c-2.173,0.683-4.655,1.303-7.447,1.861
			c-2.793,0.559-5.804,1.023-9.03,1.396c-3.229,0.372-6.517,0.559-9.868,0.559c-8.564,0-16.011-1.275-22.342-3.816
			c-6.33-2.543-11.543-6.08-15.64-10.613c-4.096-4.529-7.138-9.867-9.122-16.012C157.197,649.676,156.205,642.944,156.205,635.618z
			 M221.555,625.565c0-3.102-0.437-6.051-1.304-8.844c-0.87-2.793-2.141-5.213-3.816-7.262c-1.676-2.047-3.724-3.658-6.144-4.84
			c-2.42-1.179-5.306-1.769-8.658-1.769c-3.477,0-6.516,0.651-9.123,1.954c-2.606,1.305-4.812,3.012-6.609,5.121
			c-1.801,2.111-3.197,4.531-4.189,7.261c-0.995,2.731-1.676,5.524-2.048,8.378H221.555z"/>
		<path fill="#404041" d="M300.309,584.047c7.447,0,13.713,0.931,18.803,2.792c5.088,1.862,9.153,4.469,12.196,7.82
			c3.04,3.352,5.214,7.418,6.516,12.195c1.304,4.779,1.956,10.024,1.956,15.732v59.019c-3.476,0.745-8.723,1.647-15.733,2.7
			c-7.014,1.053-14.926,1.582-23.738,1.582c-5.836,0-11.171-0.559-16.012-1.676s-8.969-2.915-12.381-5.398
			c-3.415-2.481-6.083-5.707-8.005-9.682c-1.926-3.971-2.887-8.873-2.887-14.708c0-5.587,1.085-10.302,3.259-14.15
			c2.17-3.846,5.12-6.981,8.844-9.401c3.724-2.422,8.035-4.157,12.939-5.214c4.901-1.053,10.021-1.583,15.36-1.583
			c2.48,0,5.087,0.157,7.819,0.466c2.729,0.312,5.646,0.838,8.75,1.583v-3.725c0-2.605-0.311-5.088-0.931-7.446
			c-0.622-2.356-1.708-4.437-3.258-6.237c-1.554-1.798-3.601-3.194-6.144-4.189c-2.545-0.991-5.742-1.488-9.588-1.488
			c-5.213,0-9.993,0.371-14.336,1.116c-4.346,0.745-7.883,1.615-10.612,2.606l-2.793-18.246c2.854-0.992,7.011-1.984,12.474-2.979
			C288.269,584.544,294.101,584.047,300.309,584.047z M302.17,668.015c6.951,0,12.225-0.372,15.826-1.117v-24.948
			c-1.242-0.372-3.043-0.745-5.399-1.117c-2.359-0.372-4.966-0.559-7.819-0.559c-2.484,0-4.997,0.187-7.54,0.559
			c-2.545,0.372-4.841,1.056-6.889,2.048c-2.048,0.996-3.694,2.391-4.934,4.189c-1.243,1.801-1.863,4.066-1.863,6.795
			c0,5.339,1.676,9.029,5.027,11.078C291.93,666.99,296.46,668.015,302.17,668.015z"/>
		<path fill="#404041" d="M366.217,560.773l22.528-3.724v29.418h34.631v18.804h-34.631v39.657c0,7.818,1.239,13.404,3.724,16.756
			c2.481,3.352,6.702,5.026,12.66,5.026c4.097,0,7.727-0.433,10.892-1.304c3.164-0.865,5.679-1.675,7.541-2.42l3.724,17.874
			c-2.607,1.116-6.023,2.266-10.24,3.444c-4.222,1.178-9.187,1.769-14.895,1.769c-6.952,0-12.753-0.932-17.408-2.793
			c-4.654-1.862-8.348-4.562-11.078-8.099c-2.732-3.537-4.654-7.82-5.772-12.847c-1.117-5.026-1.675-10.766-1.675-17.222V560.773z"
			/>
		<path fill="#404041" d="M530.988,635.061c0,7.697-1.117,14.708-3.351,21.038c-2.235,6.331-5.4,11.729-9.496,16.198
			c-4.096,4.468-9.029,7.944-14.802,10.427c-5.771,2.48-12.134,3.723-19.083,3.723c-6.953,0-13.282-1.242-18.99-3.723
			c-5.711-2.482-10.612-5.959-14.709-10.427c-4.096-4.469-7.292-9.867-9.589-16.198c-2.297-6.33-3.444-13.341-3.444-21.038
			c0-7.694,1.147-14.677,3.444-20.945c2.297-6.267,5.522-11.636,9.683-16.104c4.157-4.469,9.091-7.914,14.802-10.333
			c5.708-2.421,11.977-3.631,18.804-3.631c6.825,0,13.126,1.21,18.897,3.631c5.771,2.419,10.706,5.864,14.802,10.333
			s7.29,9.838,9.589,16.104C529.839,620.384,530.988,627.366,530.988,635.061z M507.901,635.061c0-9.682-2.079-17.344-6.236-22.993
			c-4.159-5.646-9.96-8.472-17.408-8.472c-7.447,0-13.251,2.825-17.408,8.472c-4.16,5.649-6.236,13.312-6.236,22.993
			c0,9.807,2.076,17.565,6.236,23.272c4.157,5.711,9.961,8.564,17.408,8.564c7.448,0,13.249-2.854,17.408-8.564
			C505.822,652.626,507.901,644.867,507.901,635.061z"/>
		<path fill="#404041" d="M609.742,606.761c-1.861-0.619-4.439-1.271-7.728-1.955c-3.29-0.68-7.105-1.023-11.449-1.023
			c-2.485,0-5.121,0.25-7.913,0.744c-2.792,0.497-4.748,0.932-5.865,1.304v78.009h-22.527v-92.717
			c4.344-1.612,9.773-3.133,16.291-4.562c6.516-1.426,13.746-2.142,21.69-2.142c1.49,0,3.226,0.094,5.214,0.279
			c1.983,0.187,3.971,0.437,5.956,0.745c1.984,0.312,3.91,0.684,5.772,1.117c1.861,0.437,3.352,0.837,4.469,1.21L609.742,606.761z"
			/>
		<path fill="#404041" d="M654.426,557.981c0,4.222-1.367,7.572-4.096,10.054c-2.732,2.484-5.957,3.724-9.682,3.724
			c-3.85,0-7.139-1.239-9.869-3.724c-2.73-2.481-4.094-5.832-4.094-10.054c0-4.344,1.363-7.756,4.094-10.24
			c2.73-2.481,6.02-3.723,9.869-3.723c3.725,0,6.949,1.241,9.682,3.723C653.059,550.226,654.426,553.638,654.426,557.981z
			 M652.006,683.839h-22.529v-97.371h22.529V683.839z"/>
		<path fill="#404041" d="M675.273,635.618c0-8.563,1.273-16.072,3.818-22.527c2.541-6.451,5.926-11.822,10.146-16.104
			c4.217-4.282,9.059-7.509,14.523-9.681c5.459-2.171,11.043-3.259,16.754-3.259c13.406,0,23.861,4.159,31.373,12.474
			c7.508,8.318,11.264,20.73,11.264,37.236c0,1.243-0.031,2.639-0.094,4.189c-0.063,1.555-0.156,2.949-0.279,4.189h-64.232
			c0.619,7.819,3.379,13.87,8.285,18.152c4.902,4.283,12.01,6.423,21.316,6.423c5.461,0,10.455-0.494,14.988-1.488
			c4.531-0.992,8.1-2.049,10.705-3.166l2.979,18.432c-1.242,0.623-2.947,1.274-5.119,1.956c-2.172,0.683-4.654,1.303-7.447,1.861
			s-5.803,1.023-9.029,1.396c-3.229,0.372-6.518,0.559-9.867,0.559c-8.564,0-16.012-1.275-22.344-3.816
			c-6.328-2.543-11.541-6.08-15.639-10.613c-4.096-4.529-7.137-9.867-9.121-16.012C676.266,649.676,675.273,642.944,675.273,635.618
			z M740.623,625.565c0-3.102-0.436-6.051-1.303-8.844c-0.869-2.793-2.141-5.213-3.816-7.262c-1.676-2.047-3.723-3.658-6.145-4.84
			c-2.42-1.179-5.307-1.769-8.656-1.769c-3.477,0-6.518,0.651-9.125,1.954c-2.605,1.305-4.811,3.012-6.607,5.121
			c-1.801,2.111-3.197,4.531-4.189,7.261c-0.994,2.731-1.676,5.524-2.047,8.378H740.623z"/>
		<path fill="#404041" d="M869.275,680.861c-4.467,1.367-10.086,2.606-16.85,3.724c-6.766,1.117-13.871,1.676-21.318,1.676
			c-7.697,0-14.586-1.182-20.666-3.537c-6.082-2.357-11.264-5.74-15.547-10.147c-4.281-4.404-7.572-9.743-9.867-16.011
			c-2.297-6.267-3.443-13.313-3.443-21.133c0-7.694,0.961-14.676,2.885-20.945c1.924-6.266,4.748-11.636,8.473-16.105
			c3.723-4.467,8.252-7.911,13.592-10.332c5.334-2.421,11.479-3.631,18.43-3.631c4.717,0,8.873,0.559,12.475,1.676
			c3.6,1.117,6.703,2.358,9.311,3.724v-46.731l22.527-3.724V680.861z M804.67,634.874c0,9.932,2.357,17.72,7.076,23.366
			c4.715,5.649,11.23,8.471,19.549,8.471c3.598,0,6.67-0.154,9.217-0.465c2.541-0.308,4.621-0.651,6.236-1.023v-55.854
			c-1.988-1.364-4.625-2.637-7.914-3.817c-3.291-1.179-6.795-1.769-10.52-1.769c-8.191,0-14.18,2.792-17.965,8.378
			C806.561,617.745,804.67,625.317,804.67,634.874z"/>
		<path fill="#00A551" d="M930.34,584.047c7.449,0,13.715,0.931,18.805,2.792c5.088,1.862,9.152,4.469,12.195,7.82
			c3.041,3.352,5.213,7.418,6.518,12.195c1.303,4.779,1.955,10.024,1.955,15.732v59.019c-3.479,0.745-8.723,1.647-15.732,2.7
			c-7.016,1.053-14.928,1.582-23.74,1.582c-5.834,0-11.17-0.559-16.01-1.676c-4.842-1.117-8.971-2.915-12.383-5.398
			c-3.414-2.481-6.08-5.707-8.004-9.682c-1.926-3.971-2.887-8.873-2.887-14.708c0-5.587,1.084-10.302,3.258-14.15
			c2.17-3.846,5.121-6.981,8.846-9.401c3.723-2.422,8.033-4.157,12.938-5.214c4.902-1.053,10.021-1.583,15.361-1.583
			c2.48,0,5.088,0.157,7.818,0.466c2.729,0.312,5.646,0.838,8.75,1.583v-3.725c0-2.605-0.311-5.088-0.93-7.446
			c-0.623-2.356-1.707-4.437-3.258-6.237c-1.555-1.798-3.602-3.194-6.145-4.189c-2.545-0.991-5.742-1.488-9.588-1.488
			c-5.213,0-9.994,0.371-14.336,1.116c-4.348,0.745-7.883,1.615-10.611,2.606l-2.793-18.246c2.854-0.992,7.01-1.984,12.473-2.979
			C918.301,584.544,924.133,584.047,930.34,584.047z M932.203,668.015c6.949,0,12.223-0.372,15.824-1.117v-24.948
			c-1.242-0.372-3.043-0.745-5.398-1.117c-2.359-0.372-4.967-0.559-7.82-0.559c-2.484,0-4.996,0.187-7.539,0.559
			c-2.545,0.372-4.842,1.056-6.889,2.048c-2.049,0.996-3.695,2.391-4.934,4.189c-1.244,1.801-1.863,4.066-1.863,6.795
			c0,5.339,1.676,9.029,5.027,11.078C921.965,666.99,926.492,668.015,932.203,668.015z"/>
		<path fill="#00A551" d="M1085.057,635.247c0,7.446-0.963,14.274-2.885,20.479c-1.926,6.208-4.688,11.543-8.285,16.012
			c-3.602,4.468-8.1,7.944-13.498,10.427c-5.4,2.481-11.514,3.723-18.34,3.723c-4.594,0-8.814-0.559-12.658-1.676
			c-3.85-1.117-7.016-2.355-9.496-3.724v37.796h-22.529V589.632c4.59-1.239,10.24-2.42,16.943-3.537
			c6.701-1.117,13.777-1.676,21.225-1.676c7.693,0,14.582,1.181,20.666,3.537c6.08,2.359,11.264,5.744,15.545,10.147
			c4.283,4.407,7.57,9.745,9.869,16.012C1083.908,620.384,1085.057,627.427,1085.057,635.247z M1061.971,635.618
			c0-10.053-2.266-17.873-6.795-23.458c-4.533-5.586-11.824-8.378-21.877-8.378c-2.113,0-4.314,0.093-6.609,0.279
			c-2.299,0.186-4.563,0.59-6.795,1.21v55.669c1.982,1.367,4.621,2.639,7.912,3.816c3.287,1.182,6.795,1.768,10.52,1.768
			c8.191,0,14.178-2.792,17.967-8.377C1060.078,652.562,1061.971,645.053,1061.971,635.618z"/>
		<path fill="#00A551" d="M1196.02,635.247c0,7.446-0.963,14.274-2.885,20.479c-1.926,6.208-4.688,11.543-8.285,16.012
			c-3.602,4.468-8.1,7.944-13.498,10.427c-5.4,2.481-11.514,3.723-18.338,3.723c-4.596,0-8.816-0.559-12.66-1.676
			c-3.85-1.117-7.016-2.355-9.496-3.724v37.796h-22.529V589.632c4.592-1.239,10.24-2.42,16.943-3.537
			c6.701-1.117,13.777-1.676,21.225-1.676c7.693,0,14.582,1.181,20.666,3.537c6.08,2.359,11.264,5.744,15.545,10.147
			c4.283,4.407,7.57,9.745,9.869,16.012C1194.871,620.384,1196.02,627.427,1196.02,635.247z M1172.934,635.618
			c0-10.053-2.266-17.873-6.795-23.458c-4.533-5.586-11.822-8.378-21.879-8.378c-2.111,0-4.313,0.093-6.607,0.279
			c-2.299,0.186-4.563,0.59-6.795,1.21v55.669c1.984,1.367,4.621,2.639,7.912,3.816c3.287,1.182,6.795,1.768,10.52,1.768
			c8.191,0,14.178-2.792,17.965-8.377C1171.039,652.562,1172.934,645.053,1172.934,635.618z"/>
	</g>
	<g>
		<path fill="#00A551" d="M522.297,318.175c-4.126,3.47-8.005,7.222-11.618,11.216c-18.262,20.185-29.631,46.696-30.401,75.82
			c-0.022,1.044-0.079,2.078-0.079,3.132v9.284v3.844h-11.207c-6.549,0-9.161,4.607-5.805,10.229l29.036,48.643
			c3.36,5.622,8.851,5.622,12.202,0l29.041-48.643c3.348-5.622,0.742-10.229-5.811-10.229h-11.205v-3.844v-9.284
			c0-30.939,17.312-57.902,42.762-71.723c-4.57-1.43-9.017-3.121-13.346-5.021C537.519,327.942,529.63,323.43,522.297,318.175z"/>
		<path fill="#00A551" d="M727.021,421.471h-11.207v-3.844v-9.284c0-1.054-0.047-2.088-0.074-3.132
			c-0.77-29.124-12.143-55.636-30.404-75.82c-3.613-3.994-7.49-7.746-11.615-11.216c-4.104-3.451-8.467-6.628-13.021-9.506
			c-8.775-5.537-18.318-9.965-28.443-13.039c-10.68-3.263-22-5.029-33.723-5.086c-0.178,0-0.347-0.01-0.525-0.01
			c-0.18,0-0.348,0.01-0.527,0.01c-13.838-0.085-26.869-3.63-38.268-9.825c-24.611-13.364-41.61-39.024-42.703-68.679
			c-0.038-1.01-0.059-2.024-0.059-3.044v-2.495h0.01c21.482,11.035,50.369,17.218,81.557,17.218
			c31.184,0,60.069-6.181,81.545-17.212v2.489c0,1.021-0.02,2.036-0.057,3.046c-1.096,29.652-18.09,55.313-42.695,68.677
			c4.564,1.43,9.006,3.122,13.342,5.021c8.352,3.658,16.24,8.17,23.568,13.426c24.969-21.003,41.098-52.154,42.02-87.043
			c0.027-1.039,0.074-2.077,0.074-3.126v-44.112v-50.266V64.355c0-6.89-1.809-13.55-5.299-19.816
			c-5.771-10.363-16.141-19.649-30.547-27.113C658.283,6.189,629.176,0,598.007,0c-31.168,0-60.275,6.189-81.959,17.426
			c-14.406,7.464-24.777,16.75-30.55,27.113c-3.491,6.267-5.3,12.927-5.3,19.816v50.263v50.266v44.112
			c0,1.049,0.057,2.087,0.079,3.126c0.922,34.889,17.056,66.04,42.02,87.043c4.108,3.459,8.466,6.628,13.026,9.504
			c8.771,5.538,18.309,9.956,28.434,13.04c10.689,3.253,22.009,5.03,33.723,5.086c0.18,0,0.348,0.01,0.527,0.01
			c0.179,0,0.348-0.01,0.525-0.01c13.84,0.085,26.879,3.629,38.278,9.825c25.445,13.82,42.752,40.783,42.752,71.723v9.284v3.844
			h-11.205c-6.545,0-9.156,4.607-5.801,10.229l29.031,48.643c3.365,5.622,8.852,5.622,12.203,0l29.045-48.643
			C736.188,426.078,733.578,421.471,727.021,421.471z M679.563,128.322v33.435v11.318c-2.162,1.917-4.705,3.786-7.617,5.579
			c-17.422,10.729-44.369,16.883-73.928,16.882c-29.562,0-56.508-6.154-73.928-16.882c-2.892-1.782-5.486-3.64-7.639-5.54v-11.358
			v-33.437v-16.843c7.434,3.816,15.802,7.081,25.042,9.737c17.065,4.902,36.609,7.498,56.515,7.498
			c19.906,0,39.45-2.596,56.516-7.498c9.242-2.656,17.609-5.921,25.039-9.735V128.322z M513.763,75.443
			c-2.457-2.667-5.381-6.752-5.381-11.088c0-4.317,2.791-9.123,8.068-13.783c13.182-11.643,41.902-22.387,81.557-22.387
			c39.653,0,68.374,10.743,81.555,22.386c5.279,4.661,8.07,9.467,8.07,13.784c0,4.335-2.926,8.421-5.381,11.086
			c-0.813,0.881-1.715,1.752-2.689,2.615c-2.16,1.918-4.707,3.788-7.625,5.587c-17.426,10.729-44.373,16.884-73.93,16.882
			c-29.562,0-56.508-6.152-73.928-16.88c-2.919-1.798-5.467-3.67-7.629-5.589C515.476,77.194,514.574,76.322,513.763,75.443z"/>
	</g>
</g>
</svg>
