<?xml version="1.0" encoding="utf-8"?>
<!-- Generator: Adobe Illustrator 16.0.0, SVG Export Plug-In . SVG Version: 6.00 Build 0)  -->
<!DOCTYPE svg PUBLIC "-//W3C//DTD SVG 1.1//EN" "http://www.w3.org/Graphics/SVG/1.1/DTD/svg11.dtd">
<svg version="1.1" id="Layer_1" xmlns="http://www.w3.org/2000/svg" xmlns:xlink="http://www.w3.org/1999/xlink" x="0px" y="0px"
	 width="1196.021px" height="571.498px" viewBox="0 0 1196.021 571.498" enable-background="new 0 0 1196.021 571.498"
	 xml:space="preserve">
<g>
	<g>
		<path fill="#404041" d="M39.284,437.262c7.448,0,13.714,0.931,18.804,2.793c5.088,1.861,9.152,4.468,12.195,7.818
			c3.04,3.353,5.214,7.42,6.517,12.196c1.304,4.78,1.954,10.024,1.954,15.731v59.02c-3.476,0.745-8.721,1.647-15.732,2.7
			c-7.014,1.054-14.926,1.582-23.737,1.582c-5.835,0-11.171-0.558-16.013-1.675c-4.84-1.117-8.969-2.916-12.381-5.4
			c-3.414-2.48-6.082-5.707-8.004-9.681C0.961,518.376,0,513.475,0,507.639c0-5.586,1.085-10.302,3.258-14.15
			c2.17-3.846,5.12-6.981,8.844-9.402c3.724-2.42,8.035-4.156,12.939-5.213c4.902-1.053,10.021-1.582,15.361-1.582
			c2.479,0,5.086,0.156,7.818,0.465c2.729,0.312,5.646,0.838,8.75,1.582v-3.723c0-2.607-0.311-5.088-0.932-7.447
			c-0.621-2.356-1.706-4.437-3.256-6.236c-1.555-1.799-3.602-3.195-6.145-4.19c-2.547-0.991-5.742-1.488-9.588-1.488
			c-5.215,0-9.994,0.372-14.337,1.116c-4.347,0.746-7.884,1.615-10.612,2.606l-2.793-18.246c2.854-0.991,7.012-1.983,12.475-2.978
			C27.244,437.76,33.076,437.262,39.284,437.262z M41.146,521.229c6.949,0,12.223-0.372,15.824-1.118v-24.947
			c-1.242-0.372-3.043-0.744-5.398-1.117c-2.359-0.373-4.966-0.559-7.82-0.559c-2.484,0-4.997,0.186-7.54,0.559
			c-2.546,0.373-4.841,1.057-6.888,2.048c-2.049,0.995-3.695,2.392-4.935,4.189c-1.243,1.801-1.862,4.066-1.862,6.796
			c0,5.338,1.676,9.029,5.027,11.077S35.436,521.229,41.146,521.229z"/>
		<path fill="#404041" d="M140.193,538.917c-6.702-0.125-12.259-0.87-16.662-2.234c-4.408-1.364-7.914-3.319-10.521-5.865
			c-2.606-2.542-4.438-5.708-5.491-9.495c-1.057-3.785-1.584-8.098-1.584-12.939V396.302l22.529-3.724v111.522
			c0,2.731,0.215,5.026,0.65,6.89c0.434,1.861,1.211,3.444,2.328,4.747c1.117,1.304,2.635,2.298,4.561,2.979
			c1.924,0.684,4.375,1.21,7.354,1.583L140.193,538.917z"/>
		<path fill="#404041" d="M156.205,488.833c0-8.563,1.271-16.072,3.816-22.527c2.543-6.452,5.926-11.822,10.146-16.104
			c4.219-4.282,9.059-7.508,14.522-9.682c5.46-2.17,11.046-3.258,16.757-3.258c13.404,0,23.859,4.16,31.371,12.474
			c7.508,8.317,11.264,20.729,11.264,37.236c0,1.243-0.032,2.64-0.093,4.189c-0.063,1.554-0.157,2.95-0.278,4.189h-64.233
			c0.619,7.819,3.38,13.87,8.285,18.152c4.901,4.282,12.009,6.423,21.317,6.423c5.46,0,10.455-0.494,14.988-1.488
			c4.529-0.992,8.098-2.049,10.705-3.166l2.979,18.432c-1.242,0.623-2.949,1.274-5.119,1.955c-2.174,0.684-4.656,1.305-7.447,1.862
			c-2.793,0.559-5.805,1.024-9.03,1.396c-3.229,0.372-6.517,0.558-9.868,0.558c-8.564,0-16.011-1.274-22.342-3.816
			c-6.33-2.543-11.543-6.08-15.639-10.612c-4.096-4.528-7.139-9.867-9.123-16.012C157.197,502.891,156.205,496.159,156.205,488.833z
			 M221.555,478.779c0-3.101-0.437-6.051-1.304-8.843c-0.87-2.793-2.142-5.214-3.816-7.262c-1.676-2.048-3.724-3.659-6.144-4.84
			c-2.421-1.179-5.307-1.769-8.658-1.769c-3.477,0-6.516,0.651-9.123,1.954c-2.605,1.304-4.811,3.012-6.609,5.12
			c-1.801,2.112-3.197,4.533-4.188,7.262c-0.995,2.731-1.677,5.524-2.048,8.377H221.555z"/>
		<path fill="#404041" d="M300.309,437.262c7.447,0,13.714,0.931,18.804,2.793c5.089,1.861,9.153,4.468,12.196,7.818
			c3.039,3.353,5.213,7.42,6.516,12.196c1.303,4.78,1.955,10.024,1.955,15.731v59.02c-3.476,0.745-8.723,1.647-15.732,2.7
			c-7.014,1.054-14.926,1.582-23.738,1.582c-5.836,0-11.17-0.558-16.012-1.675c-4.84-1.117-8.969-2.916-12.381-5.4
			c-3.415-2.48-6.082-5.707-8.006-9.681c-1.926-3.971-2.887-8.872-2.887-14.708c0-5.586,1.086-10.302,3.26-14.15
			c2.17-3.846,5.119-6.981,8.844-9.402c3.723-2.42,8.034-4.156,12.939-5.213c4.9-1.053,10.021-1.582,15.359-1.582
			c2.48,0,5.088,0.156,7.82,0.465c2.729,0.312,5.646,0.838,8.75,1.582v-3.723c0-2.607-0.311-5.088-0.932-7.447
			c-0.621-2.356-1.707-4.437-3.258-6.236c-1.553-1.799-3.601-3.195-6.144-4.19c-2.546-0.991-5.742-1.488-9.589-1.488
			c-5.213,0-9.992,0.372-14.336,1.116c-4.346,0.746-7.883,1.615-10.611,2.606l-2.793-18.246c2.854-0.991,7.011-1.983,12.474-2.978
			C288.269,437.76,294.102,437.262,300.309,437.262z M302.17,521.229c6.951,0,12.225-0.372,15.826-1.118v-24.947
			c-1.242-0.372-3.043-0.744-5.4-1.117c-2.358-0.373-4.965-0.559-7.818-0.559c-2.484,0-4.998,0.186-7.541,0.559
			c-2.545,0.373-4.84,1.057-6.889,2.048c-2.048,0.995-3.693,2.392-4.934,4.189c-1.242,1.801-1.862,4.066-1.862,6.796
			c0,5.338,1.677,9.029,5.027,11.077S296.46,521.229,302.17,521.229z"/>
		<path fill="#404041" d="M366.217,413.988l22.527-3.723v29.417h34.631v18.804h-34.631v39.656c0,7.82,1.24,13.406,3.725,16.756
			c2.48,3.353,6.701,5.027,12.66,5.027c4.096,0,7.727-0.433,10.891-1.303c3.164-0.867,5.68-1.676,7.541-2.421l3.725,17.874
			c-2.607,1.117-6.023,2.266-10.24,3.444c-4.223,1.178-9.188,1.769-14.895,1.769c-6.953,0-12.754-0.932-17.408-2.793
			c-4.654-1.862-8.348-4.561-11.078-8.099c-2.732-3.537-4.654-7.819-5.771-12.847s-1.676-10.766-1.676-17.223V413.988z"/>
		<path fill="#404041" d="M530.988,488.275c0,7.697-1.117,14.708-3.351,21.039c-2.235,6.33-5.4,11.729-9.496,16.197
			c-4.096,4.468-9.029,7.945-14.802,10.426c-5.771,2.48-12.134,3.724-19.083,3.724c-6.953,0-13.282-1.243-18.99-3.724
			c-5.711-2.48-10.612-5.958-14.709-10.426c-4.096-4.469-7.292-9.867-9.589-16.197c-2.297-6.331-3.445-13.342-3.445-21.039
			c0-7.694,1.148-14.677,3.445-20.945c2.297-6.266,5.522-11.636,9.683-16.104c4.157-4.468,9.091-7.913,14.802-10.333
			c5.708-2.42,11.977-3.631,18.804-3.631c6.825,0,13.126,1.211,18.897,3.631s10.706,5.865,14.802,10.333
			c4.096,4.469,7.29,9.839,9.589,16.104C529.84,473.599,530.988,480.581,530.988,488.275z M507.901,488.275
			c0-9.682-2.079-17.344-6.236-22.994c-4.159-5.646-9.96-8.471-17.408-8.471c-7.447,0-13.251,2.824-17.408,8.471
			c-4.16,5.65-6.236,13.313-6.236,22.994c0,9.807,2.076,17.565,6.236,23.273c4.157,5.71,9.961,8.563,17.408,8.563
			c7.448,0,13.249-2.853,17.408-8.563C505.822,505.841,507.901,498.082,507.901,488.275z"/>
		<path fill="#404041" d="M609.742,459.976c-1.861-0.619-4.439-1.271-7.728-1.955c-3.29-0.681-7.105-1.024-11.449-1.024
			c-2.485,0-5.121,0.251-7.913,0.745c-2.792,0.497-4.748,0.931-5.865,1.304v78.01H554.26v-92.719
			c4.344-1.611,9.773-3.133,16.291-4.561c6.516-1.426,13.746-2.142,21.69-2.142c1.49,0,3.226,0.093,5.214,0.279
			c1.983,0.187,3.971,0.437,5.956,0.745c1.984,0.312,3.91,0.684,5.772,1.117c1.861,0.436,3.352,0.838,4.469,1.211L609.742,459.976z"
			/>
		<path fill="#404041" d="M654.426,411.196c0,4.222-1.367,7.572-4.096,10.054c-2.732,2.484-5.957,3.724-9.682,3.724
			c-3.849,0-7.138-1.239-9.869-3.724c-2.73-2.481-4.094-5.832-4.094-10.054c0-4.344,1.363-7.756,4.094-10.239
			c2.731-2.482,6.021-3.725,9.869-3.725c3.725,0,6.949,1.242,9.682,3.725C653.059,403.44,654.426,406.853,654.426,411.196z
			 M652.006,537.055h-22.528v-97.372h22.528V537.055z"/>
		<path fill="#404041" d="M675.274,488.833c0-8.563,1.272-16.072,3.817-22.527c2.542-6.452,5.926-11.822,10.146-16.104
			c4.218-4.282,9.059-7.508,14.523-9.682c5.459-2.17,11.044-3.258,16.755-3.258c13.405,0,23.86,4.16,31.372,12.474
			c7.508,8.317,11.264,20.729,11.264,37.236c0,1.243-0.031,2.64-0.094,4.189c-0.063,1.554-0.156,2.95-0.278,4.189h-64.233
			c0.62,7.819,3.38,13.87,8.285,18.152c4.902,4.282,12.01,6.423,21.317,6.423c5.461,0,10.455-0.494,14.988-1.488
			c4.53-0.992,8.099-2.049,10.705-3.166l2.979,18.432c-1.242,0.623-2.948,1.274-5.119,1.955c-2.173,0.684-4.655,1.305-7.448,1.862
			c-2.792,0.559-5.803,1.024-9.028,1.396c-3.229,0.372-6.518,0.558-9.868,0.558c-8.564,0-16.012-1.274-22.343-3.816
			c-6.329-2.543-11.542-6.08-15.639-10.612c-4.096-4.528-7.138-9.867-9.121-16.012C676.266,502.891,675.274,496.159,675.274,488.833
			z M740.624,478.779c0-3.101-0.436-6.051-1.303-8.843c-0.87-2.793-2.142-5.214-3.816-7.262c-1.677-2.048-3.724-3.659-6.145-4.84
			c-2.42-1.179-5.307-1.769-8.657-1.769c-3.477,0-6.517,0.651-9.124,1.954c-2.605,1.304-4.811,3.012-6.608,5.12
			c-1.801,2.112-3.196,4.533-4.189,7.262c-0.994,2.731-1.676,5.524-2.047,8.377H740.624z"/>
		<path fill="#404041" d="M869.275,534.076c-4.467,1.367-10.085,2.606-16.85,3.724c-6.766,1.117-13.87,1.675-21.318,1.675
			c-7.696,0-14.586-1.18-20.666-3.537c-6.082-2.355-11.264-5.739-15.546-10.146c-4.282-4.404-7.572-9.742-9.868-16.012
			c-2.297-6.266-3.442-13.313-3.442-21.132c0-7.694,0.96-14.677,2.885-20.945c1.923-6.266,4.748-11.636,8.472-16.104
			s8.252-7.912,13.592-10.334c5.335-2.42,11.479-3.63,18.431-3.63c4.717,0,8.872,0.559,12.475,1.675
			c3.599,1.118,6.702,2.359,9.31,3.725v-46.731l22.527-3.724V534.076z M804.671,488.089c0,9.932,2.356,17.72,7.075,23.366
			c4.716,5.649,11.23,8.471,19.549,8.471c3.598,0,6.67-0.154,9.217-0.465c2.541-0.309,4.621-0.652,6.236-1.023v-55.854
			c-1.987-1.364-4.625-2.637-7.913-3.817c-3.291-1.178-6.796-1.77-10.52-1.77c-8.192,0-14.181,2.793-17.965,8.379
			C806.562,470.96,804.671,478.533,804.671,488.089z"/>
		<path fill="#00A551" d="M930.341,437.262c7.448,0,13.715,0.931,18.805,2.793c5.088,1.861,9.152,4.468,12.195,7.818
			c3.04,3.353,5.212,7.42,6.517,12.196c1.303,4.78,1.955,10.024,1.955,15.731v59.02c-3.478,0.745-8.723,1.647-15.732,2.7
			c-7.015,1.054-14.927,1.582-23.739,1.582c-5.835,0-11.17-0.558-16.011-1.675c-4.842-1.117-8.97-2.916-12.382-5.4
			c-3.415-2.48-6.081-5.707-8.005-9.681c-1.926-3.971-2.886-8.872-2.886-14.708c0-5.586,1.084-10.302,3.258-14.15
			c2.17-3.846,5.12-6.981,8.845-9.402c3.723-2.42,8.033-4.156,12.938-5.213c4.901-1.053,10.021-1.582,15.36-1.582
			c2.48,0,5.088,0.156,7.819,0.465c2.729,0.312,5.646,0.838,8.75,1.582v-3.723c0-2.607-0.311-5.088-0.931-7.447
			c-0.622-2.356-1.707-4.437-3.258-6.236c-1.554-1.799-3.601-3.195-6.144-4.19c-2.546-0.991-5.742-1.488-9.589-1.488
			c-5.213,0-9.993,0.372-14.336,1.116c-4.347,0.746-7.883,1.615-10.611,2.606l-2.793-18.246c2.854-0.991,7.01-1.983,12.473-2.978
			C918.301,437.76,924.133,437.262,930.341,437.262z M932.204,521.229c6.949,0,12.223-0.372,15.824-1.118v-24.947
			c-1.242-0.372-3.043-0.744-5.399-1.117c-2.358-0.373-4.966-0.559-7.82-0.559c-2.483,0-4.996,0.186-7.539,0.559
			c-2.545,0.373-4.841,1.057-6.889,2.048c-2.049,0.995-3.694,2.392-4.934,4.189c-1.243,1.801-1.862,4.066-1.862,6.796
			c0,5.338,1.676,9.029,5.027,11.077C921.965,520.205,926.493,521.229,932.204,521.229z"/>
		<path fill="#00A551" d="M1085.058,488.461c0,7.447-0.963,14.275-2.886,20.48c-1.926,6.208-4.688,11.543-8.285,16.012
			c-3.602,4.468-8.099,7.945-13.498,10.427s-11.514,3.723-18.34,3.723c-4.593,0-8.813-0.558-12.658-1.675
			c-3.85-1.117-7.015-2.356-9.496-3.725v37.795h-22.528v-128.65c4.59-1.24,10.24-2.421,16.942-3.539
			c6.702-1.116,13.777-1.675,21.225-1.675c7.694,0,14.583,1.181,20.666,3.537c6.081,2.359,11.264,5.743,15.546,10.147
			c4.282,4.407,7.57,9.746,9.868,16.012C1083.909,473.599,1085.058,480.642,1085.058,488.461z M1061.972,488.833
			c0-10.054-2.267-17.873-6.796-23.458c-4.532-5.586-11.823-8.379-21.877-8.379c-2.112,0-4.314,0.094-6.609,0.28
			c-2.298,0.187-4.562,0.591-6.795,1.21v55.669c1.982,1.367,4.622,2.638,7.912,3.816c3.287,1.181,6.796,1.768,10.52,1.768
			c8.191,0,14.179-2.792,17.967-8.377C1060.078,505.775,1061.972,498.268,1061.972,488.833z"/>
		<path fill="#00A551" d="M1196.021,488.461c0,7.447-0.963,14.275-2.886,20.48c-1.925,6.208-4.688,11.543-8.285,16.012
			c-3.602,4.468-8.099,7.945-13.498,10.427s-11.514,3.723-18.338,3.723c-4.595,0-8.815-0.558-12.66-1.675
			c-3.85-1.117-7.015-2.356-9.496-3.725v37.795h-22.528v-128.65c4.592-1.24,10.24-2.421,16.942-3.539
			c6.702-1.116,13.778-1.675,21.226-1.675c7.693,0,14.582,1.181,20.665,3.537c6.08,2.359,11.265,5.743,15.546,10.147
			c4.282,4.407,7.57,9.746,9.868,16.012C1194.871,473.599,1196.021,480.642,1196.021,488.461z M1172.935,488.833
			c0-10.054-2.267-17.873-6.796-23.458c-4.532-5.586-11.822-8.379-21.878-8.379c-2.111,0-4.313,0.094-6.607,0.28
			c-2.299,0.187-4.563,0.591-6.796,1.21v55.669c1.984,1.367,4.622,2.638,7.913,3.816c3.286,1.181,6.795,1.768,10.519,1.768
			c8.191,0,14.179-2.792,17.966-8.377C1171.04,505.775,1172.935,498.268,1172.935,488.833z"/>
	</g>
	<g>
		<path fill="#00A551" d="M673.905,212c3.47,4.125,7.222,8.004,11.216,11.617c20.185,18.264,46.696,29.633,75.82,30.402
			c1.044,0.023,2.078,0.08,3.132,0.08h9.284h3.844v11.206c0,6.548,4.607,9.161,10.229,5.806l48.643-29.037
			c5.622-3.361,5.622-8.85,0-12.202l-48.643-29.041c-5.622-3.348-10.229-0.743-10.229,5.81v11.207h-3.844h-9.284
			c-30.939,0-57.902-17.313-71.723-42.762c-1.43,4.568-3.121,9.016-5.021,13.345C683.673,196.779,679.16,204.666,673.905,212z"/>
		<path fill="#00A551" d="M777.201,7.276v11.206h-3.844h-9.284c-1.054,0-2.088,0.047-3.132,0.076
			c-29.124,0.768-55.636,12.141-75.82,30.402c-3.994,3.613-7.746,7.492-11.216,11.617c-3.451,4.104-6.628,8.465-9.506,13.02
			c-5.537,8.777-9.965,18.318-13.039,28.444c-3.263,10.68-5.029,21.999-5.086,33.722c0,0.179-0.01,0.348-0.01,0.527
			c0,0.178,0.01,0.348,0.01,0.526c-0.085,13.839-3.63,26.868-9.825,38.269c-13.364,24.61-39.024,41.609-68.679,42.702
			c-1.01,0.038-2.024,0.06-3.044,0.06h-2.495v-0.01c11.035-21.482,17.218-50.369,17.218-81.557c0-31.186-6.181-60.068-17.212-81.547
			h2.489c1.021,0,2.036,0.021,3.046,0.059c29.652,1.094,55.313,18.088,68.677,42.694c1.43-4.564,3.122-9.007,5.021-13.341
			c3.658-8.354,8.17-16.24,13.426-23.568c-21.003-24.971-52.154-41.1-87.043-42.02c-1.039-0.029-2.077-0.076-3.126-0.076h-44.112
			h-50.266h-50.263c-6.89,0-13.55,1.811-19.816,5.299c-10.363,5.771-19.649,16.143-27.113,30.549
			c-11.236,21.685-17.426,50.792-17.426,81.961c0,31.167,6.189,60.274,17.426,81.957c7.464,14.408,16.75,24.779,27.113,30.551
			c6.267,3.49,12.927,5.301,19.816,5.301h50.263h50.266h44.112c1.049,0,2.087-0.057,3.126-0.08
			c34.889-0.922,66.04-17.055,87.043-42.02c3.459-4.108,6.628-8.467,9.504-13.025c5.538-8.771,9.956-18.31,13.04-28.434
			c3.253-10.691,5.03-22.01,5.086-33.724c0-0.179,0.01-0.349,0.01-0.526c0-0.18-0.01-0.349-0.01-0.527
			c0.085-13.838,3.629-26.878,9.825-38.276c13.82-25.444,40.783-42.753,71.723-42.753h9.284h3.844v11.207
			c0,6.543,4.607,9.156,10.229,5.801l48.643-29.031c5.622-3.367,5.622-8.853,0-12.204L787.431,1.461
			C781.809-1.891,777.201,0.719,777.201,7.276z M484.053,54.734h33.435h11.318c1.917,2.162,3.786,4.705,5.579,7.618
			c10.729,17.421,16.883,44.368,16.882,73.929c0,29.561-6.154,56.506-16.882,73.928c-1.782,2.891-3.64,5.484-5.54,7.639h-11.358
			H484.05h-16.843c3.816-7.434,7.081-15.803,9.737-25.043c4.902-17.066,7.498-36.609,7.498-56.514
			c0-19.907-2.596-39.451-7.498-56.517c-2.656-9.243-5.921-17.608-9.735-25.04H484.053z M431.174,220.534
			c-2.667,2.456-6.752,5.382-11.088,5.382c-4.317,0-9.123-2.791-13.783-8.068c-11.643-13.184-22.387-41.902-22.387-81.557
			s10.743-68.374,22.386-81.557c4.661-5.277,9.467-8.069,13.784-8.069c4.335,0,8.421,2.926,11.086,5.382
			c0.881,0.811,1.752,1.714,2.615,2.688c1.918,2.162,3.788,4.708,5.587,7.627c10.729,17.424,16.884,44.371,16.882,73.93
			c0,29.561-6.152,56.506-16.88,73.928c-1.798,2.918-3.67,5.465-5.589,7.629C432.925,218.82,432.053,219.724,431.174,220.534z"/>
	</g>
</g>
</svg>
